<svg width="33" height="33" viewBox="0 0 33 33" fill="none" xmlns="http://www.w3.org/2000/svg">
<path d="M28.7508 13.5339C29.1998 13.4898 29.5291 13.0985 29.5291 13.0985C29.5291 13.0985 29.1302 12.7785 28.6803 12.8227C28.6257 12.8278 28.5717 12.8383 28.5191 12.8541C28.5974 12.7263 28.6391 12.5795 28.6396 12.4297C28.5521 12.4369 28.4662 12.4576 28.385 12.4908C28.5242 11.2525 28.0845 9.99549 27.0711 8.92606C27.1112 8.93348 27.1518 8.9383 27.1925 8.94049C27.661 8.96086 28.0565 8.60608 28.0565 8.60608C28.0565 8.60608 27.717 8.24706 27.2731 8.20293C27.3747 8.1461 27.47 8.07867 27.5575 8.00177C28.1609 7.46451 28.2246 6.55041 28.2246 6.55041C28.2246 6.55041 27.3096 6.50797 26.7062 7.04523C26.633 7.11088 26.5657 7.18272 26.505 7.25996C26.4836 6.99206 26.389 6.73518 26.2317 6.5173C26.1798 6.56172 26.1313 6.60995 26.0866 6.66159C25.4763 4.67042 23.6388 3.30817 21.1944 3.08665C21.2442 3.01185 21.2857 2.93189 21.3183 2.84815C21.3183 2.84815 20.9279 2.71914 20.585 2.86428C20.6372 2.78229 20.6804 2.69493 20.714 2.60371C20.9423 1.97139 20.6291 1.27881 20.6291 1.27881C20.6291 1.27881 19.9433 1.60982 19.715 2.24129C19.6876 2.31832 19.6669 2.39754 19.653 2.47809C19.5315 2.29055 19.3606 2.14018 19.1591 2.04353C19.1223 2.14 19.0975 2.24062 19.0852 2.34314C18.0144 1.67777 16.7658 1.35557 15.5067 1.41974C14.2476 1.48391 13.0382 1.93137 12.0406 2.70217C12.0392 2.51598 11.9972 2.33235 11.9175 2.16406C11.9175 2.16406 11.5559 2.36266 11.4295 2.7115C11.4048 2.61763 11.3704 2.5266 11.3268 2.4399C11.0195 1.84577 10.2981 1.60048 10.2981 1.60048C10.2981 1.60048 10.0723 2.32787 10.383 2.92539C10.4201 2.998 10.4639 3.06703 10.5137 3.13163C10.2937 3.09322 10.0673 3.11582 9.85928 3.19699C9.88604 3.25261 9.91726 3.30597 9.95264 3.35655C7.78408 3.74273 6.19861 5.04387 5.65202 6.84747C5.58123 6.78983 5.50538 6.7387 5.4254 6.69469C5.4254 6.69469 5.21236 7.14029 5.33119 7.5706C5.24167 7.49609 5.14435 7.43149 5.04092 7.37794C4.32287 7.00788 3.44696 7.27779 3.44696 7.27779C3.44696 7.27779 3.73639 8.14691 4.45528 8.51612C4.54286 8.56107 4.63433 8.598 4.72858 8.62645C4.48638 8.74261 4.28083 8.92321 4.13445 9.14844C4.33025 9.25327 4.54669 9.31383 4.76847 9.32582C2.88254 11.474 3.19064 14.2418 5.65541 16.1413C5.65541 16.3111 5.65541 16.4715 5.67239 16.6327C5.46647 16.6139 5.25889 16.637 5.06213 16.7006C5.06213 16.7006 5.23952 17.1615 5.63504 17.3686C5.51941 17.3837 5.40564 17.4108 5.29554 17.4492C4.53167 17.7191 4.13105 18.5407 4.13105 18.5407C4.13105 18.5407 4.96198 18.9252 5.72331 18.6553C5.81602 18.6226 5.90552 18.5814 5.99067 18.5322C5.96149 18.6117 5.94155 18.6943 5.93126 18.7784C5.93079 18.7877 5.93079 18.7971 5.93126 18.8064C5.91451 18.9795 5.92656 19.1541 5.9669 19.3233C6.16143 19.2575 6.3409 19.1536 6.49483 19.0177H6.50926C6.52284 19.0372 6.53727 19.0559 6.55169 19.0746C6.50168 19.12 6.45515 19.1691 6.4125 19.2214C5.99322 19.7468 6.06875 20.5039 6.06875 20.5039C6.06875 20.5039 6.8182 20.4097 7.24258 19.8834L7.25955 19.8597C7.37244 19.9598 7.48278 20.0413 7.60584 20.1321C7.65932 20.1763 7.69072 20.2051 7.72382 20.2263C8.80853 20.9902 10.2539 21.3925 11.9065 21.3085C14.4578 23.5747 18.1159 23.5008 20.5442 21.1345C22.0584 21.1506 23.379 20.7645 24.3916 20.0829C24.4562 20.2178 24.5566 20.3323 24.6819 20.4139C24.7628 20.2661 24.7944 20.0963 24.7718 19.9293C24.8185 19.9749 24.87 20.0153 24.9255 20.0498C25.3091 20.2866 25.8082 20.1737 25.8082 20.1737C25.8082 20.1737 25.6843 19.678 25.2989 19.4412C25.2714 19.4245 25.2431 19.4092 25.214 19.3954C25.2497 19.3581 25.2845 19.3207 25.3184 19.2834C25.3899 19.2328 25.4534 19.1719 25.5069 19.1026L25.4848 19.089C26.213 18.1859 26.5941 17.0257 26.5092 15.7186C27.2731 15.0761 27.7993 14.353 28.104 13.5967C28.143 13.6899 28.2038 13.7723 28.2814 13.8369C28.4275 13.9374 28.6038 13.9844 28.7805 13.9702C28.7555 13.8038 28.6779 13.6497 28.559 13.5305C28.6226 13.5383 28.6869 13.5394 28.7508 13.5339Z" fill="#047857"/>
<path fill-rule="evenodd" clip-rule="evenodd" d="M20.7721 1.21403L20.6291 1.2787L20.5609 1.13734L20.7058 1.06738L20.7721 1.21403ZM20.8672 2.64125C20.9885 2.29264 20.963 1.93621 20.9112 1.67365C20.8846 1.53912 20.8505 1.42575 20.8229 1.34563C20.809 1.3055 20.7967 1.27349 20.7877 1.2511C20.7832 1.2399 20.7795 1.23109 20.7769 1.22485L20.7736 1.21744L20.7727 1.21523L20.7723 1.2145L20.7721 1.21403C20.7721 1.21398 20.7721 1.21403 20.6291 1.2787C20.5609 1.13734 20.5609 1.13732 20.5609 1.13734L20.5604 1.13757L20.5597 1.13792L20.5575 1.13899L20.5503 1.14262C20.5442 1.14569 20.5357 1.15009 20.5251 1.1558C20.5038 1.16721 20.4738 1.18391 20.4373 1.20585C20.3647 1.24965 20.2657 1.31482 20.159 1.40108C19.9557 1.56546 19.7142 1.81467 19.5824 2.148C19.4782 2.04814 19.3583 1.96491 19.2269 1.9019L19.0732 1.82815L19.0124 1.98748C18.9989 2.0229 18.9868 2.05881 18.9762 2.09513C17.9223 1.49064 16.7152 1.20087 15.4987 1.26287C14.2996 1.32398 13.1445 1.72413 12.1664 2.41406C12.1433 2.30482 12.1074 2.19832 12.0594 2.0968L11.9873 1.94457L11.8406 2.02714C11.8137 2.04211 11.7214 2.0975 11.6173 2.18891C11.5668 2.23327 11.5113 2.28805 11.4584 2.35289C11.2859 2.02856 11.0074 1.80486 10.7799 1.66387C10.6633 1.5916 10.557 1.53915 10.4795 1.50461C10.4407 1.48731 10.4089 1.47441 10.3863 1.4657C10.3751 1.46133 10.3661 1.45801 10.3597 1.4557L10.3521 1.45299L10.3499 1.45219L10.3491 1.45193L10.3487 1.4518C10.3487 1.45178 10.3486 1.45177 10.2981 1.60038L10.3487 1.4518L10.196 1.39987L10.1482 1.55385L10.2981 1.60038C10.1482 1.55385 10.1482 1.5538 10.1482 1.55385L10.148 1.55435L10.1478 1.55512L10.1471 1.55745L10.1448 1.56522C10.1429 1.57176 10.1403 1.58098 10.1372 1.59268C10.1311 1.61607 10.1228 1.64943 10.1141 1.69105C10.0966 1.77413 10.0768 1.89106 10.0674 2.02801C10.0495 2.28878 10.0682 2.63511 10.2241 2.95863C10.0802 2.96692 9.93778 2.99777 9.80224 3.05065L9.64437 3.11223L9.70777 3.24401C7.68267 3.66833 6.16935 4.8948 5.56906 6.59658C5.54672 6.58288 5.52405 6.56971 5.50107 6.55706L5.42195 6.69294C5.28379 6.62688 5.28377 6.62693 5.28375 6.62697L5.2836 6.6273L5.28332 6.62787L5.28255 6.62952L5.28015 6.63474C5.27818 6.63907 5.2755 6.64507 5.27225 6.65264C5.26576 6.66776 5.25695 6.68919 5.24693 6.71601C5.22695 6.76951 5.20187 6.84521 5.18085 6.93563C5.1598 7.02616 5.14209 7.13454 5.13875 7.252C5.13024 7.24741 5.12168 7.24289 5.11309 7.23844C4.71846 7.03506 4.28721 7.01017 3.96391 7.03239C3.80094 7.04359 3.66175 7.06698 3.56291 7.08765C3.51341 7.098 3.47381 7.10772 3.44614 7.11499C3.4323 7.11862 3.42143 7.12164 3.41378 7.12383L3.40476 7.12646L3.40211 7.12726L3.40096 7.12761C3.40091 7.12762 3.40074 7.12767 3.44695 7.27764L3.40096 7.12761L3.24731 7.17495L3.29804 7.32727L3.44695 7.27764C3.29803 7.32724 3.29802 7.32722 3.29804 7.32727L3.29821 7.32779L3.2985 7.32863L3.29939 7.33124L3.30249 7.34012C3.30516 7.34761 3.30902 7.35821 3.3141 7.37157C3.32427 7.3983 3.33938 7.43616 3.35973 7.48243C3.40036 7.57483 3.46225 7.70163 3.54788 7.8407C3.71756 8.11624 3.98785 8.45192 4.38212 8.65489C4.23374 8.76746 4.10522 8.90527 4.00284 9.06279L3.90973 9.20606L4.06036 9.28671C4.18925 9.35572 4.32624 9.40734 4.46775 9.44057C3.63028 10.4918 3.27923 11.6798 3.42467 12.8461C3.57762 14.0727 4.27712 15.256 5.49851 16.2179C5.49869 16.3016 5.49953 16.3854 5.50325 16.4696C5.33733 16.4725 5.17241 16.4999 5.01387 16.5512L5.06214 16.7005L4.90986 16.7386L4.95059 16.9015L4.97931 16.8923C5.00259 16.9361 5.03256 16.9881 5.06955 17.0437C5.12107 17.1212 5.18795 17.2086 5.27146 17.2915C5.26221 17.2946 5.25298 17.2977 5.24377 17.3009L5.24325 17.3011C4.82357 17.4494 4.51036 17.7461 4.30536 17.9967C4.20204 18.123 4.12398 18.2403 4.07154 18.3264C4.04528 18.3695 4.02532 18.405 4.01173 18.4301C4.00493 18.4426 3.99971 18.4526 3.99608 18.4597L3.99183 18.4681L3.9906 18.4705L3.99021 18.4713L3.99007 18.4716C3.99005 18.4717 3.98997 18.4718 4.13106 18.5406L3.99007 18.4716L3.91977 18.6158L4.06514 18.6831L4.13106 18.5406C4.06514 18.6831 4.06509 18.6831 4.06514 18.6831L4.06564 18.6833L4.06644 18.6837L4.06896 18.6848L4.07754 18.6886C4.08482 18.6918 4.09518 18.6963 4.10839 18.7017C4.13481 18.7126 4.17272 18.7275 4.22035 18.7444C4.31544 18.7781 4.45013 18.8199 4.61003 18.8529C4.92674 18.9181 5.35609 18.9514 5.77385 18.8038C5.75722 18.99 5.77084 19.1777 5.81423 19.3596L5.85416 19.527L6.01719 19.4719C6.04299 19.4631 6.06855 19.4538 6.09386 19.4439C5.99831 19.6514 5.95094 19.863 5.92777 20.0391C5.90989 20.1751 5.90598 20.2935 5.90654 20.3783C5.90683 20.4208 5.90824 20.4551 5.90962 20.4792C5.91032 20.4913 5.911 20.5008 5.91154 20.5076L5.91222 20.5156L5.91244 20.5181L5.91252 20.5188L5.91256 20.5193C5.91256 20.5193 5.91257 20.5194 6.06876 20.5038L5.91256 20.5193L5.92856 20.6796L6.08834 20.6595L6.06876 20.5038C6.08834 20.6595 6.08828 20.6595 6.08834 20.6595L6.08885 20.6595L6.08965 20.6594L6.09204 20.659L6.10001 20.6579C6.1067 20.6569 6.1161 20.6555 6.12795 20.6535C6.15164 20.6495 6.1852 20.6432 6.22648 20.6341C6.30888 20.6158 6.42294 20.5857 6.5512 20.538C6.77556 20.4547 7.05312 20.314 7.27801 20.0803C7.35411 20.1413 7.4303 20.1976 7.50916 20.2558C7.51819 20.2632 7.52728 20.2709 7.53639 20.2786C7.56963 20.3066 7.60324 20.3349 7.63592 20.3563C8.73892 21.1322 10.1959 21.5402 11.8504 21.4682C14.4441 23.7308 18.1347 23.6573 20.6072 21.2918C22.0549 21.2965 23.3334 20.9387 24.341 20.3031C24.4104 20.3983 24.4967 20.4805 24.5962 20.5453L24.7381 20.6378L24.8196 20.4892C24.8652 20.4058 24.8978 20.3166 24.9166 20.2246C25.1226 20.3295 25.3422 20.3561 25.5094 20.3574C25.6044 20.3582 25.6861 20.3508 25.7445 20.3432C25.7738 20.3394 25.7974 20.3355 25.8141 20.3324C25.8225 20.3309 25.8292 20.3296 25.834 20.3286L25.8399 20.3274L25.8417 20.327L25.8423 20.3268L25.8427 20.3267C25.8428 20.3267 25.8428 20.3267 25.8082 20.1736L25.8427 20.3267L25.9994 20.2913L25.9605 20.1355L25.8082 20.1736C25.9605 20.1355 25.9605 20.1356 25.9605 20.1355L25.9603 20.1351L25.9597 20.1326L25.9582 20.1269C25.9569 20.1221 25.955 20.1155 25.9526 20.1074C25.9478 20.0911 25.9407 20.0682 25.9309 20.0404C25.9114 19.9849 25.8811 19.9087 25.8376 19.8243C25.7632 19.6799 25.6452 19.5023 25.4676 19.3668C25.5283 19.3171 25.5832 19.2606 25.6312 19.1983L25.7377 19.0602L25.7161 19.0469C26.3843 18.1526 26.7343 17.0342 26.6705 15.7874C27.3335 15.217 27.8194 14.5831 28.1353 13.9163C28.15 13.9306 28.1652 13.9443 28.181 13.9575L28.1866 13.9621L28.1925 13.9662C28.3683 14.0871 28.5804 14.1437 28.7931 14.1265L28.9607 14.113L28.9357 13.9468C28.9216 13.8529 28.8935 13.7623 28.8529 13.6778C29.079 13.636 29.2688 13.5249 29.4022 13.4254C29.4783 13.3685 29.539 13.3133 29.5809 13.272C29.6019 13.2513 29.6183 13.2339 29.6298 13.2214C29.6356 13.2151 29.6401 13.21 29.6433 13.2063L29.6472 13.2018L29.6485 13.2004L29.6489 13.1999L29.6491 13.1996C29.6492 13.1995 29.6492 13.1995 29.5291 13.0984L29.6491 13.1996L29.7527 13.0765L29.6273 12.976L29.5291 13.0984C29.6273 12.976 29.6274 12.976 29.6273 12.976L29.627 12.9757L29.6264 12.9753L29.625 12.9741L29.6202 12.9704C29.6163 12.9674 29.6109 12.9633 29.604 12.9583C29.5903 12.9482 29.5708 12.9343 29.5462 12.9181C29.4971 12.8857 29.4268 12.8433 29.3411 12.8023C29.1941 12.7321 28.992 12.6617 28.7679 12.6614C28.7866 12.5861 28.7963 12.5085 28.7966 12.4301L28.7972 12.2591L28.6267 12.2732C28.6044 12.275 28.5823 12.2776 28.5603 12.2809C28.6241 11.168 28.2392 10.0558 27.4208 9.08193C27.5988 9.05172 27.7558 8.98407 27.8755 8.91852C27.9618 8.87131 28.032 8.82345 28.0809 8.78715C28.1055 8.76896 28.1248 8.75353 28.1384 8.74235C28.1452 8.73675 28.1506 8.7322 28.1544 8.72889L28.159 8.72487L28.1605 8.72359L28.161 8.72314L28.1613 8.72289C28.1613 8.72286 28.1613 8.72283 28.0565 8.60598L28.1613 8.72289L28.2813 8.61522L28.1706 8.49813L28.0565 8.60598C28.1706 8.49813 28.1706 8.49817 28.1706 8.49813L28.1703 8.4978L28.1698 8.49734L28.1686 8.49603L28.1646 8.49191C28.1612 8.48852 28.1566 8.48387 28.1507 8.47811C28.1389 8.46662 28.1221 8.4507 28.1006 8.43171C28.0579 8.39383 27.9963 8.34321 27.9194 8.29108C27.8426 8.23892 27.7479 8.18345 27.6397 8.13808C27.6469 8.13195 27.654 8.12576 27.6611 8.11952L27.6618 8.1189C27.9934 7.82368 28.1716 7.43046 28.2673 7.12084C28.3155 6.96477 28.3438 6.8265 28.3601 6.72687C28.3683 6.67697 28.3735 6.63653 28.3767 6.60811C28.3782 6.5939 28.3793 6.58267 28.3801 6.57475L28.3808 6.56538L28.3811 6.56263L28.3811 6.56175L28.3811 6.56144C28.3812 6.56138 28.3812 6.56121 28.2246 6.5503L28.3811 6.56144L28.3923 6.40095L28.2318 6.3935L28.2246 6.5503C28.2318 6.3935 28.2319 6.39351 28.2318 6.3935L28.2304 6.39344L28.2277 6.39333L28.2183 6.39304C28.2103 6.39283 28.199 6.39262 28.1847 6.39256C28.1562 6.39244 28.1154 6.39292 28.0649 6.39527C27.9641 6.39994 27.8235 6.41207 27.663 6.44192C27.3449 6.50106 26.9344 6.63233 26.6031 6.92675C26.5514 6.74756 26.4691 6.5778 26.359 6.4253L26.2592 6.28711L26.1562 6.37521C25.477 4.50773 23.7263 3.23367 21.4439 2.95522C21.4511 2.93861 21.458 2.92185 21.4646 2.90496L21.5273 2.74377L21.3608 2.69694C21.3668 2.69864 21.1422 2.62295 20.8672 2.64125ZM21.0885 2.96056C20.9648 2.94535 20.7981 2.94442 20.6461 3.00872L20.1817 3.20533L20.4526 2.77987C20.4986 2.7075 20.5368 2.6304 20.5665 2.54989C20.667 2.27126 20.6501 1.97218 20.6032 1.73442C20.586 1.64743 20.5652 1.57047 20.5458 1.50818C20.4909 1.5436 20.4254 1.58937 20.3563 1.64521C20.1678 1.79765 19.9633 2.01626 19.8627 2.2942C19.8384 2.36264 19.82 2.43304 19.8077 2.50461L19.7396 2.90024L19.5213 2.56336C19.45 2.45326 19.3591 2.35787 19.2536 2.28162C19.2485 2.30811 19.2443 2.3348 19.2411 2.36165L19.2118 2.60652L19.0024 2.47636C17.9587 1.82788 16.7418 1.51386 15.5147 1.5764C14.2876 1.63894 13.1089 2.07504 12.1365 2.82627L11.886 3.01982L11.8836 2.70326C11.8829 2.60367 11.8689 2.50492 11.8422 2.40954C11.8364 2.41446 11.8305 2.41955 11.8245 2.42481C11.7286 2.50899 11.6278 2.625 11.577 2.76489L11.4055 3.23797L11.2777 2.75129C11.2559 2.6683 11.2255 2.58782 11.187 2.51114C11.0515 2.24974 10.8209 2.05864 10.6145 1.93071C10.5389 1.88384 10.4682 1.84646 10.4092 1.81802C10.3977 1.88224 10.3867 1.96115 10.3806 2.04951C10.364 2.29128 10.3855 2.58983 10.5222 2.85288L10.5227 2.85377C10.5555 2.91782 10.5941 2.97872 10.638 3.0357L10.8846 3.35564L10.4867 3.28616C10.3574 3.26359 10.2256 3.26519 10.0979 3.2903L10.2222 3.46789L9.98017 3.51098C7.85898 3.88873 6.32875 5.15559 5.80224 6.89289L5.73438 7.11683L5.55292 6.96909C5.53752 6.95655 5.52185 6.94435 5.50592 6.93251C5.4993 6.95553 5.49276 6.98037 5.48663 7.00672C5.45133 7.15855 5.43276 7.34858 5.4825 7.52872L5.61587 8.01171L5.23077 7.69114C5.15 7.6239 5.06218 7.56561 4.96886 7.51728C4.64548 7.35068 4.27956 7.32537 3.98544 7.34558C3.85771 7.35436 3.74618 7.37154 3.66144 7.38802C3.69728 7.4665 3.74811 7.56715 3.8152 7.67609C3.96974 7.92706 4.20315 8.21005 4.52696 8.37637C4.60611 8.41699 4.68878 8.45037 4.77395 8.47608L5.16113 8.59298L4.79646 8.76788C4.63616 8.84476 4.49385 8.95326 4.37771 9.08617C4.50554 9.13356 4.64011 9.16158 4.77695 9.16898L5.09963 9.18643L4.88643 9.42928C3.96923 10.474 3.59304 11.6594 3.73619 12.8073C3.87947 13.9563 4.54563 15.0878 5.75123 16.0169L5.81239 16.064V16.1412C5.81239 16.3124 5.81253 16.4645 5.8285 16.6162L5.84851 16.8063L5.65814 16.7889C5.53504 16.7777 5.41129 16.7832 5.29018 16.8049C5.3024 16.8256 5.316 16.8474 5.331 16.87C5.41712 16.9995 5.54253 17.1429 5.70786 17.2294L6.14759 17.4597L5.65543 17.5241C5.55058 17.5379 5.44742 17.5624 5.34759 17.5972C5.00351 17.7189 4.73457 17.9678 4.54834 18.1955C4.4675 18.2943 4.4039 18.3871 4.35808 18.4599C4.43979 18.4876 4.54797 18.5196 4.67335 18.5454C4.96195 18.6048 5.3279 18.6288 5.67087 18.5073C5.75449 18.4777 5.83541 18.4405 5.91221 18.3962L6.28727 18.1797L6.13803 18.5862C6.11375 18.6523 6.09694 18.721 6.08789 18.7908C6.08786 18.7934 6.08791 18.7959 6.08803 18.7985L6.08861 18.8099L6.0875 18.8214C6.07842 18.9153 6.07875 19.0097 6.08839 19.1033C6.1975 19.0492 6.29926 18.9809 6.39094 18.9L6.43546 18.8606H6.59128L6.63812 18.928C6.64908 18.9437 6.66109 18.9593 6.67591 18.9785L6.76459 19.0933L6.65718 19.1907C6.61319 19.2306 6.57225 19.2738 6.53471 19.3198C6.3503 19.5512 6.27062 19.8398 6.23903 20.08C6.22747 20.1679 6.22259 20.2475 6.22103 20.3127C6.28373 20.2967 6.35947 20.2744 6.44186 20.2438C6.66733 20.16 6.93021 20.0188 7.11761 19.7883L7.23323 19.6264L7.36373 19.7422C7.47054 19.8369 7.57532 19.9144 7.69905 20.0057L7.70248 20.0083L7.70577 20.011C7.72612 20.0278 7.74171 20.0409 7.75424 20.0514C7.78043 20.0735 7.79331 20.0843 7.80854 20.0941L7.81141 20.0959L7.8142 20.0979C8.86612 20.8387 10.2757 21.2342 11.8985 21.1516L11.9627 21.1484L12.0107 21.191C14.5012 23.4031 18.0659 23.3303 20.4347 21.022L20.4811 20.9768L20.5459 20.9774C22.0327 20.9933 23.3212 20.6141 24.304 19.9526L24.4547 19.8511L24.5332 20.015C24.5549 20.0604 24.5817 20.1029 24.6128 20.1418C24.6236 20.0789 24.6249 20.0143 24.6163 19.9501L24.5554 19.4982L24.8816 19.8169C24.9201 19.8546 24.9626 19.8879 25.0084 19.9164C25.166 20.0135 25.354 20.0422 25.5119 20.0435C25.5409 20.0437 25.5683 20.043 25.5938 20.0418C25.5835 20.0185 25.5718 19.9938 25.5585 19.9681C25.4862 19.8277 25.3755 19.6725 25.217 19.575C25.1942 19.5612 25.1707 19.5485 25.1466 19.5371L24.9507 19.4439L25.1005 19.2869C25.1353 19.2505 25.1692 19.2141 25.2023 19.1777L25.2138 19.165L25.2278 19.1551C25.2378 19.1481 25.2476 19.1407 25.2572 19.1332L25.2507 19.1292L25.3626 18.9904C26.0653 18.119 26.435 16.9979 26.3526 15.7287L26.3475 15.6495L26.4082 15.5984C27.1547 14.9705 27.6644 14.2678 27.9585 13.538L28.1014 13.1832L28.1603 13.324L28.5779 13.3746C28.6305 13.381 28.6836 13.382 28.7364 13.3775C28.9208 13.3591 29.0879 13.2682 29.2144 13.1738C29.2376 13.1565 29.259 13.1394 29.2785 13.123C29.2562 13.1107 29.2319 13.098 29.2058 13.0856C29.063 13.0174 28.8809 12.9606 28.6957 12.9788L28.695 12.9789C28.6507 12.983 28.6068 12.9916 28.5641 13.0044L28.1705 13.1222L28.3853 12.7719C28.412 12.7284 28.4334 12.6821 28.4493 12.634C28.4477 12.6347 28.4461 12.6353 28.4445 12.636L28.1994 12.7363L28.229 12.4732C28.3624 11.2865 27.9429 10.0742 26.9572 9.03393L26.6255 8.68394L27.0997 8.77161C27.1329 8.77775 27.1664 8.78175 27.2001 8.7836C27.3941 8.79182 27.5804 8.72214 27.7249 8.64312C27.7541 8.62713 27.7811 8.61103 27.8055 8.59557C27.7864 8.58109 27.7655 8.56604 27.7431 8.55083C27.6141 8.46323 27.4434 8.37749 27.2576 8.35902L26.7606 8.3096L27.1965 8.06582C27.2882 8.01452 27.3743 7.95366 27.4533 7.88426C27.725 7.64224 27.8803 7.30986 27.9673 7.02818C28.0051 6.9059 28.0292 6.79571 28.0444 6.71074C27.9583 6.71596 27.8461 6.72718 27.7204 6.75056C27.4306 6.80443 27.0825 6.92027 26.8107 7.16222C26.7444 7.22175 26.6834 7.28687 26.6284 7.35688L26.3805 7.67213L26.3485 7.27237C26.3344 7.09528 26.2845 6.92358 26.2025 6.76741L26.0196 6.97861L25.9365 6.70748C25.3484 4.78865 23.5738 3.45979 21.1802 3.24287L20.9176 3.21907L21.0637 2.99956C21.0722 2.98674 21.0805 2.97373 21.0885 2.96056ZM28.1811 13.3739L28.2489 13.5361C28.2772 13.6038 28.3209 13.6639 28.3764 13.7116C28.4332 13.7496 28.4954 13.7776 28.5606 13.795C28.5312 13.7387 28.4933 13.6868 28.4479 13.6413L28.1811 13.3739ZM28.6653 12.6663C28.6655 12.6663 28.6656 12.6663 28.6657 12.6663L28.6804 12.8226L28.665 12.6664C28.6651 12.6663 28.6652 12.6663 28.6653 12.6663Z" fill="#047857"/>
<path opacity="0.1" d="M28.7508 13.5339C29.1998 13.4898 29.5291 13.0985 29.5291 13.0985C29.5291 13.0985 29.1302 12.7785 28.6803 12.8227C28.6257 12.8278 28.5717 12.8383 28.5191 12.8541C28.5974 12.7263 28.6391 12.5795 28.6396 12.4297C28.5521 12.4369 28.4662 12.4576 28.385 12.4908C28.5242 11.2525 28.0845 9.99549 27.0711 8.92606C27.1112 8.93348 27.1518 8.9383 27.1925 8.94049C27.661 8.96086 28.0565 8.60608 28.0565 8.60608C28.0565 8.60608 27.717 8.24706 27.2731 8.20293C27.3747 8.1461 27.47 8.07867 27.5575 8.00177C28.1609 7.46451 28.2246 6.55041 28.2246 6.55041C28.2246 6.55041 27.3096 6.50797 26.7062 7.04523C26.633 7.11088 26.5657 7.18272 26.505 7.25996C26.4836 6.99206 26.3891 6.73518 26.2317 6.5173C26.1798 6.56172 26.1313 6.60995 26.0866 6.66159C25.4763 4.67042 23.6388 3.30817 21.1944 3.08665C21.2442 3.01185 21.2857 2.93189 21.3183 2.84815C21.3183 2.84815 20.9279 2.71914 20.585 2.86428C20.6372 2.78229 20.6804 2.69493 20.714 2.60371C20.9423 1.97139 20.6291 1.27881 20.6291 1.27881C20.6291 1.27881 19.9433 1.60982 19.715 2.24129C19.6876 2.31832 19.6669 2.39754 19.653 2.47809C19.5315 2.29055 19.3606 2.14018 19.1591 2.04353C19.1223 2.14 19.0975 2.24062 19.0852 2.34314C18.0144 1.67777 16.7658 1.35557 15.5067 1.41974C14.2476 1.48391 13.0382 1.93137 12.0406 2.70216C12.0391 2.51598 11.9972 2.33235 11.9175 2.16406C11.9175 2.16406 11.5559 2.36266 11.4295 2.7115C11.4048 2.61763 11.3704 2.5266 11.3268 2.4399C11.0195 1.84577 10.2981 1.60048 10.2981 1.60048C10.2981 1.60048 10.0723 2.32787 10.383 2.92539C10.4201 2.998 10.4639 3.06704 10.5137 3.13163C10.2937 3.09322 10.0673 3.11582 9.85928 3.19699C9.88604 3.25261 9.91726 3.30597 9.95264 3.35655C7.78408 3.74273 6.19861 5.04387 5.65202 6.84747C5.58123 6.78983 5.50538 6.7387 5.4254 6.69469C5.4254 6.69469 5.21236 7.14029 5.33119 7.5706C5.24167 7.49609 5.14435 7.43149 5.04092 7.37794C4.32287 7.00788 3.44696 7.27779 3.44696 7.27779C3.44696 7.27779 3.73639 8.14691 4.45528 8.51611C4.54286 8.56107 4.63433 8.598 4.72858 8.62645C4.48638 8.74261 4.28083 8.92321 4.13445 9.14844C4.33025 9.25327 4.54669 9.31383 4.76847 9.32582C2.88254 11.474 3.19064 14.2418 5.65541 16.1413C5.65541 16.311 5.65541 16.4715 5.67239 16.6327C5.46647 16.6139 5.25889 16.637 5.06213 16.7006C5.06213 16.7006 5.23952 17.1615 5.63504 17.3686C5.51941 17.3837 5.40564 17.4108 5.29554 17.4492C4.53167 17.7191 4.13105 18.5407 4.13105 18.5407C4.13105 18.5407 4.96198 18.9252 5.72331 18.6553C5.81602 18.6226 5.90552 18.5814 5.99067 18.5322C5.96874 18.5909 5.95226 18.6514 5.94144 18.713C5.93028 18.7747 5.92376 18.8371 5.92192 18.8997C5.91859 18.9563 5.91859 19.013 5.92192 19.0695C5.92192 19.1153 5.93041 19.1612 5.93805 19.2061C5.94229 19.2358 5.94823 19.2656 5.95502 19.291C5.95502 19.3004 5.95502 19.3088 5.96096 19.3182C6.15549 19.2524 6.33496 19.1485 6.48889 19.0126H6.50331C6.5169 19.0321 6.53132 19.0508 6.54575 19.0695C6.49574 19.1149 6.44921 19.164 6.40656 19.2163C5.98727 19.7417 6.06281 20.4988 6.06281 20.4988C6.06281 20.4988 6.8182 20.4097 7.24258 19.8834L7.25955 19.8597C7.37244 19.9598 7.4675 20.0294 7.58972 20.1211C7.65847 20.1712 7.69157 20.206 7.72382 20.2263C8.80853 20.9902 10.2539 21.3925 11.9065 21.3085C14.4578 23.5747 18.1159 23.5008 20.5442 21.1345C22.0584 21.1506 23.379 20.7645 24.3916 20.0829C24.4562 20.2178 24.5566 20.3323 24.6819 20.4139C24.7628 20.2661 24.7944 20.0963 24.7718 19.9293C24.8185 19.9749 24.87 20.0153 24.9255 20.0498C25.3091 20.2866 25.8082 20.1737 25.8082 20.1737C25.8082 20.1737 25.6843 19.678 25.2989 19.4412C25.2714 19.4245 25.2431 19.4092 25.214 19.3954C25.2497 19.3581 25.2845 19.3207 25.3184 19.2834C25.3899 19.2328 25.4534 19.1719 25.5069 19.1026L25.4848 19.089C26.213 18.1859 26.5941 17.0257 26.5092 15.7186C27.2731 15.0761 27.7993 14.353 28.104 13.5967C28.143 13.6899 28.2038 13.7723 28.2814 13.8369C28.4275 13.9374 28.6038 13.9844 28.7805 13.9702C28.7555 13.8038 28.6779 13.6497 28.559 13.5305C28.6226 13.5383 28.6869 13.5394 28.7508 13.5339Z" fill="#047857"/>
<path d="M22.3759 31.0792C21.0382 30.8653 19.1922 29.9283 19.1922 28.1934C19.1922 26.4586 18.9248 16.4586 19.1922 15.7897C19.4595 15.1209 20.0486 15.3654 20.6351 15.5759C20.9112 15.6831 21.1481 15.872 21.3141 16.1174C21.3328 16.1454 21.3575 16.1689 21.3864 16.1862C21.4153 16.2035 21.4477 16.2142 21.4813 16.2174C21.5148 16.2207 21.5487 16.2164 21.5804 16.205C21.6121 16.1936 21.6409 16.1752 21.6646 16.1513C21.6873 16.1262 21.7039 16.0963 21.7132 16.0637C21.7224 16.0312 21.724 15.997 21.7178 15.9637C21.7117 15.9304 21.6979 15.899 21.6777 15.872C21.6574 15.8449 21.6311 15.8228 21.6009 15.8076C21.3599 15.6887 21.0323 15.4867 20.9831 15.255C20.8982 14.8807 21.0094 14.907 21.1698 14.8001C21.3422 14.6629 21.5063 14.5155 21.6612 14.3588C21.6858 14.338 21.7057 14.3122 21.7195 14.2832C21.7334 14.2541 21.741 14.2225 21.7417 14.1903C21.7424 14.1582 21.7364 14.1262 21.7238 14.0966C21.7113 14.0669 21.6926 14.0403 21.669 14.0184C21.6455 13.9965 21.6175 13.9798 21.587 13.9696C21.5565 13.9593 21.5242 13.9556 21.4922 13.9587C21.4601 13.9618 21.4291 13.9717 21.4012 13.9877C21.3733 14.0037 21.3491 14.0255 21.3302 14.0515C21.1375 14.3112 20.703 14.784 20.1538 14.6668C19.4044 14.5064 18.896 13.8911 19.1353 12.6298C19.3051 11.7582 19.9968 10.8093 20.4084 10.3094C20.4393 10.277 20.4619 10.2377 20.4742 10.1947C20.4864 10.1518 20.4881 10.1064 20.479 10.0627C20.4699 10.0189 20.4503 9.97804 20.4219 9.94354C20.3935 9.90903 20.3571 9.88195 20.3159 9.86461C20.2501 9.83475 20.1753 9.8315 20.1071 9.85554C20.0389 9.87959 19.9827 9.92906 19.9501 9.99362C19.7082 10.4749 19.0555 11.6614 18.5217 11.6402C18.0523 11.6215 17.5032 11.3134 17.2188 11.131C17.2 11.1182 17.1788 11.1096 17.1565 11.1056C17.1341 11.1016 17.1112 11.1022 17.0891 11.1076C17.0671 11.113 17.0464 11.1229 17.0284 11.1367C17.0104 11.1505 16.9955 11.1679 16.9846 11.1878C16.9657 11.2247 16.962 11.2675 16.9744 11.307C16.9868 11.3466 17.0142 11.3797 17.0508 11.3992C17.6101 11.6928 18.2059 12.3005 18.2806 12.5764C18.3613 12.8709 18.2008 13.3521 17.6661 14.3418C17.1314 15.3314 15.6291 15.8398 14.8839 14.7432C14.2898 13.8707 14.1319 11.9491 14.2177 11.0826C14.2222 11.0437 14.219 11.0043 14.2082 10.9667C14.1973 10.9291 14.179 10.8941 14.1545 10.8636C14.1299 10.8332 14.0994 10.808 14.065 10.7894C14.0305 10.7709 13.9926 10.7595 13.9537 10.7558C13.9142 10.7532 13.8746 10.7588 13.8374 10.7723C13.8001 10.7858 13.7661 10.8068 13.7374 10.8341C13.7087 10.8613 13.686 10.8943 13.6706 10.9307C13.6552 10.9672 13.6476 11.0065 13.6481 11.0461C13.6583 11.6971 13.9622 13.0831 13.7067 13.8071C13.3859 14.7169 12.3428 15.171 11.7003 14.6898C11.2487 14.3503 11.3404 13.4811 11.4346 12.9923C11.444 12.9613 11.4449 12.9283 11.4374 12.8968C11.4299 12.8653 11.4142 12.8363 11.3918 12.8129C11.3695 12.7894 11.3414 12.7723 11.3103 12.7633C11.2791 12.7542 11.2462 12.7536 11.2148 12.7614C11.1715 12.7694 11.1325 12.7922 11.1044 12.8261C11.0763 12.8599 11.061 12.9025 11.0611 12.9464C11.0611 13.2664 11.0246 14.0727 10.6843 14.2849C10.4042 14.4598 10.136 14.2467 9.98408 14.0778C9.95424 14.0439 9.91261 14.0227 9.86767 14.0184C9.82272 14.0142 9.77785 14.0272 9.74218 14.0549C9.72281 14.0704 9.70697 14.0899 9.69572 14.1121C9.68448 14.1342 9.67808 14.1585 9.67695 14.1833C9.67583 14.2082 9.68001 14.2329 9.6892 14.256C9.6984 14.2791 9.71241 14.2999 9.7303 14.3172C9.84149 14.4233 10.0248 14.5964 10.2472 14.8043C10.327 14.9172 10.4348 15.1141 10.3635 15.2754C10.2922 15.4367 9.92212 15.5181 9.70229 15.5496C9.68234 15.5525 9.66326 15.5597 9.64631 15.5706C9.62937 15.5816 9.61495 15.596 9.60402 15.613C9.5931 15.6299 9.58592 15.649 9.58296 15.6689C9.58 15.6889 9.58133 15.7092 9.58686 15.7286V15.7354C9.59294 15.756 9.60357 15.775 9.61797 15.791C9.63237 15.8069 9.65016 15.8194 9.67004 15.8276C9.68992 15.8357 9.71138 15.8393 9.73283 15.838C9.75427 15.8368 9.77516 15.8307 9.79396 15.8203C10.0902 15.665 10.787 15.6506 10.9415 15.6556C11.7257 15.7057 12.493 16.2014 12.9097 16.8575C13.3265 17.5136 13.3052 18.4149 13.3519 19.1678C13.4589 20.906 13.4911 28.9098 13.0362 29.5786C12.5813 30.2474 10.9143 31.1437 10.9143 31.1437" fill="#047857"/>
<path fill-rule="evenodd" clip-rule="evenodd" d="M20.3631 9.75679C20.4212 9.78154 20.4726 9.81995 20.5128 9.86876C20.5533 9.91799 20.5813 9.97633 20.5943 10.0388C20.6072 10.1012 20.6049 10.1658 20.5873 10.2272C20.5702 10.2869 20.5392 10.3418 20.4968 10.3873C20.2936 10.6343 20.0228 10.9904 19.7821 11.3909C19.5397 11.7942 19.3321 12.2357 19.2509 12.6521C19.1346 13.2655 19.2036 13.7033 19.3758 14.0025C19.5467 14.2994 19.8293 14.477 20.1784 14.5518M20.3631 9.75679C20.2699 9.71499 20.1642 9.7106 20.0679 9.74457C19.9711 9.77872 19.8912 9.84899 19.845 9.94068C19.725 10.1793 19.5048 10.5895 19.2505 10.9357C19.1231 11.1091 18.9905 11.2618 18.8611 11.3689C18.7289 11.4781 18.6164 11.5262 18.5263 11.5226C18.313 11.5141 18.0741 11.439 17.8484 11.3394C17.6248 11.2407 17.4224 11.1217 17.2834 11.0326C17.2514 11.0112 17.2152 10.9966 17.1773 10.9898C17.1388 10.9828 17.0993 10.984 17.0614 10.9932C17.0234 11.0025 16.9877 11.0195 16.9567 11.0433C16.9257 11.0671 16.9 11.0971 16.8813 11.1314L16.8798 11.1341C16.8468 11.1985 16.8404 11.2733 16.8621 11.3423C16.8837 11.4113 16.9316 11.4691 16.9954 11.5031L16.996 11.5034C17.2632 11.6437 17.5429 11.8614 17.7651 12.0787C17.876 12.187 17.9707 12.2935 18.0413 12.3879C18.1141 12.4851 18.1543 12.5603 18.167 12.6072L18.1671 12.6075C18.1979 12.7203 18.1872 12.8866 18.0928 13.1601C17.9992 13.4315 17.8292 13.7924 17.5625 14.2859C17.3118 14.75 16.8316 15.1031 16.3295 15.2097C15.8335 15.3151 15.3231 15.1801 14.9813 14.6771C14.6999 14.2639 14.5148 13.5875 14.4123 12.8935C14.3104 12.2035 14.2931 11.5169 14.3347 11.0952C14.3409 11.0412 14.3363 10.9864 14.3213 10.9341C14.306 10.8814 14.2805 10.8323 14.246 10.7897C14.2116 10.7471 14.1689 10.7117 14.1206 10.6858C14.0723 10.6598 14.0194 10.6438 13.9648 10.6387L13.9614 10.6384C13.9056 10.6347 13.8498 10.6427 13.7973 10.6617C13.7448 10.6807 13.6968 10.7103 13.6563 10.7488C13.6158 10.7872 13.5837 10.8336 13.5621 10.8851C13.5404 10.9366 13.5296 10.9919 13.5304 11.0478C13.5331 11.217 13.5547 11.4313 13.5805 11.6634C13.586 11.713 13.5918 11.7636 13.5976 11.8149C13.6192 12.0056 13.642 12.2067 13.6598 12.4095C13.7052 12.9299 13.7138 13.4331 13.5957 13.7679C13.4464 14.1913 13.129 14.5079 12.7768 14.6623C12.4243 14.8169 12.0501 14.8047 11.7709 14.5956C11.5873 14.4575 11.5013 14.2001 11.4802 13.8891C11.4596 13.5852 11.5032 13.2596 11.5492 13.0198C11.5628 12.9708 11.5637 12.9191 11.5519 12.8696C11.5396 12.8178 11.5138 12.7703 11.4771 12.7317C11.4404 12.6932 11.3942 12.6651 11.3431 12.6503C11.2932 12.6357 11.2404 12.6344 11.1899 12.6464C11.1209 12.6599 11.0587 12.6968 11.0138 12.7509C10.9681 12.8059 10.9432 12.8753 10.9434 12.9468L11.0611 12.9465H10.9434C10.9434 13.1034 10.9344 13.3764 10.8847 13.6339C10.8599 13.7626 10.8258 13.8831 10.78 13.9817C10.7337 14.0814 10.6801 14.1488 10.622 14.1851C10.5213 14.248 10.4261 14.2427 10.333 14.2023C10.2346 14.1596 10.1431 14.0786 10.072 13.9995C10.0224 13.9435 9.9533 13.9084 9.87876 13.9013C9.80399 13.8942 9.72933 13.9159 9.66999 13.9619L9.66849 13.9631C9.63607 13.9892 9.60957 14.0218 9.59075 14.0588C9.57193 14.0959 9.56122 14.1365 9.55934 14.1781C9.55746 14.2196 9.56444 14.261 9.57984 14.2996C9.59523 14.3383 9.61867 14.3731 9.6486 14.402L9.64902 14.4024C9.75906 14.5074 9.93924 14.6776 10.1577 14.8819C10.1924 14.9322 10.2288 14.9951 10.2504 15.0592C10.2736 15.1284 10.2748 15.1848 10.2558 15.2279C10.2512 15.2382 10.2364 15.2579 10.1975 15.2827C10.1601 15.3067 10.1098 15.3294 10.0502 15.3499C9.93124 15.391 9.79197 15.4179 9.68563 15.4331L9.68494 15.4332C9.64843 15.4386 9.6135 15.4518 9.58247 15.4718C9.55146 15.4918 9.52506 15.5182 9.50506 15.5492C9.48506 15.5803 9.47191 15.6152 9.46649 15.6517C9.46193 15.6825 9.46294 15.7138 9.46945 15.7442C9.47006 15.7525 9.47157 15.7608 9.47394 15.7688C9.48501 15.8063 9.50436 15.8409 9.53058 15.8699C9.55679 15.8989 9.58919 15.9217 9.62539 15.9365C9.66158 15.9514 9.70064 15.9579 9.7397 15.9556C9.77821 15.9534 9.81573 15.9426 9.84957 15.9241C9.97528 15.8586 10.2017 15.8174 10.4322 15.795C10.6561 15.7733 10.8623 15.771 10.9358 15.7733C11.6782 15.8214 12.4121 16.2937 12.8103 16.9207C13.0055 17.2279 13.1012 17.5978 13.1529 17.9917C13.1898 18.2733 13.2034 18.5584 13.2167 18.8376C13.2221 18.9513 13.2275 19.064 13.2344 19.1751C13.2876 20.0396 13.3225 22.4714 13.287 24.7725C13.2693 25.9225 13.2341 27.0377 13.175 27.9062C13.1455 28.3407 13.1101 28.7115 13.0683 28.9933C13.0474 29.1343 13.0252 29.2509 13.0019 29.3412C12.9777 29.4348 12.9552 29.4884 12.9388 29.5124C12.835 29.6651 12.6563 29.8378 12.4387 30.0138C12.2227 30.1884 11.9754 30.3607 11.7405 30.5133C11.5059 30.6657 11.2851 30.7975 11.1229 30.8913C11.0419 30.9382 10.9756 30.9755 10.9296 31.001C10.9067 31.0138 10.8888 31.0236 10.8767 31.0302L10.863 31.0376L10.8588 31.0399C10.8015 31.0707 10.7798 31.1422 10.8106 31.1995C10.8414 31.2567 10.9128 31.2782 10.97 31.2474L10.9143 31.1437C10.97 31.2474 10.97 31.2474 10.97 31.2474L10.9704 31.2472L10.9752 31.2446L10.9896 31.2368C11.0021 31.23 11.0205 31.2199 11.044 31.2068C11.091 31.1807 11.1585 31.1428 11.2408 31.0951C11.4054 31 11.6298 30.8659 11.8688 30.7107C12.1075 30.5556 12.3622 30.3784 12.5867 30.1969C12.8096 30.0167 13.0099 29.8266 13.1335 29.6448C13.1741 29.5852 13.2046 29.498 13.2299 29.4C13.256 29.2987 13.2797 29.1731 13.3012 29.0278C13.3443 28.7371 13.3802 28.3593 13.4099 27.9222C13.4694 27.0476 13.5047 25.9278 13.5225 24.7761C13.5579 22.4735 13.5232 20.0343 13.4694 19.1606C13.463 19.0564 13.4578 18.9478 13.4524 18.8365C13.4389 18.5536 13.4246 18.2529 13.3863 17.9611C13.3327 17.552 13.2307 17.1432 13.0091 16.7944C12.5742 16.1098 11.7744 15.5909 10.949 15.5382L10.9453 15.538C10.8628 15.5353 10.6449 15.5378 10.4095 15.5607C10.1795 15.583 9.90998 15.6266 9.73927 15.7161L9.73689 15.7174C9.73352 15.7192 9.72977 15.7203 9.72593 15.7206C9.72209 15.7208 9.71824 15.7201 9.71467 15.7187C9.71111 15.7172 9.70792 15.715 9.70534 15.7121C9.70445 15.7111 9.70364 15.7101 9.70291 15.709C9.70219 15.7047 9.70124 15.7005 9.70006 15.6964C9.69912 15.6931 9.69889 15.6897 9.69939 15.6863C9.6999 15.6829 9.70111 15.6797 9.70296 15.6768C9.70481 15.6739 9.70726 15.6715 9.71013 15.6696C9.713 15.6678 9.71623 15.6665 9.71961 15.666L9.70228 15.5496L9.71893 15.6661C9.83242 15.6499 9.98809 15.6204 10.1269 15.5725C10.1963 15.5486 10.2656 15.5187 10.3244 15.4811C10.3819 15.4443 10.44 15.3934 10.4711 15.3231C10.5234 15.2049 10.5064 15.0821 10.4736 14.9843C10.4405 14.8857 10.3866 14.7976 10.3433 14.7365C10.3387 14.7299 10.3334 14.7239 10.3276 14.7184C10.1056 14.5108 9.92266 14.338 9.81182 14.2323C9.80605 14.2267 9.80153 14.2199 9.79855 14.2125C9.79554 14.2049 9.79418 14.1968 9.79455 14.1887C9.79491 14.1806 9.797 14.1727 9.80068 14.1654C9.80421 14.1585 9.80912 14.1523 9.81512 14.1474C9.82699 14.1385 9.84176 14.1343 9.85655 14.1357C9.87167 14.1371 9.88567 14.1443 9.89571 14.1557L9.89654 14.1566C9.97724 14.2463 10.0957 14.356 10.2393 14.4183C10.3882 14.4829 10.5673 14.4968 10.7466 14.3848C10.8587 14.3149 10.9373 14.2021 10.9935 14.0809C11.0503 13.9586 11.0891 13.8178 11.1159 13.6784C11.1697 13.3996 11.1789 13.1095 11.1789 12.9465L11.1789 12.9461C11.1788 12.9298 11.1845 12.9139 11.195 12.9013C11.2054 12.8887 11.22 12.8802 11.2361 12.8772C11.2385 12.8768 11.2408 12.8763 11.2432 12.8757C11.2545 12.8729 11.2662 12.8731 11.2774 12.8763C11.2885 12.8796 11.2986 12.8857 11.3066 12.8941C11.3146 12.9025 11.3202 12.9129 11.3229 12.9241C11.3256 12.9354 11.3252 12.9472 11.3219 12.9583C11.3207 12.9622 11.3197 12.9661 11.319 12.97C11.2711 13.2186 11.2226 13.5695 11.2453 13.905C11.2677 14.2357 11.3616 14.5825 11.6295 14.7839C11.9928 15.056 12.4615 15.0576 12.8714 14.878C13.2816 14.6981 13.6462 14.3328 13.8177 13.8463C13.955 13.4572 13.9394 12.9054 13.8943 12.389C13.8763 12.1829 13.853 11.9778 13.8314 11.7868C13.8256 11.7359 13.8199 11.686 13.8145 11.6373C13.7885 11.4039 13.7683 11.2007 13.7658 11.0444C13.7655 11.0211 13.77 10.998 13.7791 10.9765C13.7881 10.955 13.8016 10.9356 13.8185 10.9195C13.8354 10.9034 13.8555 10.891 13.8774 10.8831C13.8988 10.8753 13.9216 10.872 13.9443 10.8732C13.967 10.8756 13.9891 10.8824 14.0092 10.8932C14.0299 10.9043 14.0481 10.9194 14.0629 10.9377C14.0776 10.9559 14.0885 10.9769 14.095 10.9994C14.1015 11.0219 14.1035 11.0455 14.1007 11.0688L14.1005 11.071C14.0565 11.516 14.0753 12.2229 14.1794 12.9279C14.2829 13.6294 14.4738 14.3502 14.7865 14.8095C15.19 15.4031 15.8033 15.5622 16.3784 15.4401C16.9474 15.3192 17.4858 14.9233 17.7697 14.3978C18.0378 13.9016 18.2153 13.527 18.3154 13.2368C18.4148 12.9488 18.4439 12.7273 18.3942 12.5457M20.2673 9.97187C20.2291 9.95456 20.1857 9.95268 20.1462 9.96662C20.1067 9.98054 20.0742 10.0092 20.0553 10.0465M20.331 10.0184C20.3147 9.99863 20.2939 9.98311 20.2703 9.97317L20.2673 9.97187M20.331 10.0184C20.3473 10.0382 20.3585 10.0616 20.3637 10.0867L20.331 10.0184ZM20.3637 10.0867C20.369 10.1118 20.368 10.1378 20.361 10.1624L20.3637 10.0867ZM20.361 10.1624C20.3539 10.187 20.341 10.2096 20.3233 10.2281L20.361 10.1624ZM20.3233 10.2281C20.3213 10.2302 20.3194 10.2323 20.3176 10.2346L20.3233 10.2281ZM20.3176 10.2346C20.1094 10.4874 19.8298 10.8544 19.5803 11.2696L20.3176 10.2346ZM19.5803 11.2696C19.3315 11.6835 19.1084 12.1522 19.0198 12.6074L19.5803 11.2696ZM17.0887 11.2429C17.0844 11.252 17.0837 11.2623 17.0867 11.2719C17.0898 11.2818 17.0967 11.2902 17.1058 11.2951C17.3979 11.4486 17.6957 11.6815 17.9297 11.9103C18.0471 12.0251 18.1503 12.1406 18.2298 12.2469C18.3072 12.3503 18.3695 12.4544 18.3942 12.5453M19.0198 12.6074L19.0196 12.6079L19.0198 12.6074ZM19.0196 12.6079C18.8967 13.2556 18.9622 13.7561 19.1717 14.1199L19.0196 12.6079ZM19.1717 14.1199C19.3825 14.4861 19.7288 14.6963 20.1292 14.782L19.1717 14.1199ZM21.4807 13.8416C21.5293 13.8368 21.5784 13.8424 21.6246 13.8581C21.6709 13.8737 21.7133 13.8989 21.7491 13.9321C21.7849 13.9654 21.8133 14.0058 21.8323 14.0508C21.8513 14.0958 21.8605 14.1443 21.8594 14.1931C21.8583 14.2419 21.8468 14.2899 21.8257 14.334C21.8055 14.3763 21.7769 14.414 21.7416 14.4449C21.5844 14.6038 21.4179 14.7532 21.243 14.8923C21.2405 14.8943 21.2378 14.8963 21.2351 14.8981C21.2031 14.9194 21.1686 14.9385 21.1435 14.9524C21.1343 14.9575 21.1263 14.9619 21.1202 14.9655C21.0918 14.982 21.0844 14.9898 21.0811 14.9945C21.0763 15.0015 21.0549 15.0397 21.0979 15.2291L21.0982 15.2306C21.114 15.3051 21.1807 15.3917 21.2935 15.4817C21.4023 15.5685 21.5361 15.6444 21.653 15.702L21.6541 15.7026C21.7004 15.726 21.7407 15.7599 21.7719 15.8014C21.803 15.843 21.8241 15.8912 21.8336 15.9423C21.843 15.9934 21.8406 16.046 21.8264 16.0959C21.8122 16.1459 21.7867 16.1919 21.7518 16.2304C21.7506 16.2317 21.7494 16.2331 21.7481 16.2343C21.7121 16.2706 21.6684 16.2984 21.6203 16.3158C21.5722 16.3331 21.5208 16.3396 21.4699 16.3347C21.419 16.3297 21.3698 16.3135 21.326 16.2873C21.2822 16.2611 21.2447 16.2255 21.2163 16.1831C21.0641 15.9581 20.8469 15.7848 20.5938 15.6862C20.5726 15.6786 20.5516 15.671 20.5307 15.6635C20.2541 15.5638 20.0051 15.474 19.7922 15.4708C19.6823 15.4692 19.5904 15.4913 19.5131 15.5426C19.4358 15.5941 19.3618 15.6825 19.3015 15.8335C19.2914 15.8588 19.2779 15.9222 19.2651 16.0337C19.2527 16.1407 19.242 16.2806 19.233 16.4499C19.2148 16.7883 19.2034 17.2387 19.1971 17.7675C19.1846 18.8247 19.1929 20.1904 19.2096 21.5905C19.2264 22.9987 19.2517 24.4425 19.2727 25.6399C19.2934 26.821 19.3099 27.7624 19.3099 28.1935C19.3099 29.0136 19.7447 29.6501 20.3536 30.113C20.9642 30.577 21.741 30.8585 22.3944 30.963C22.4586 30.9732 22.5024 31.0336 22.4921 31.0978C22.4818 31.162 22.4215 31.2057 22.3573 31.1955C21.673 31.0861 20.8581 30.7921 20.2112 30.3004C19.5627 29.8076 19.0744 29.1082 19.0744 28.1935C19.0744 27.7635 19.058 26.8259 19.0374 25.6479C19.0164 24.4511 18.9911 23.0062 18.9742 21.5933C18.9575 20.1928 18.9491 18.8248 18.9617 17.7647C18.9679 17.2348 18.9795 16.7806 18.9979 16.4373C19.0071 16.2658 19.018 16.1206 19.0312 16.0068C19.0438 15.8975 19.0596 15.8044 19.0829 15.7461C19.1562 15.5627 19.2561 15.4308 19.3827 15.3466C19.5095 15.2623 19.6516 15.2332 19.7957 15.2354C20.0504 15.2392 20.337 15.3429 20.6013 15.4386C20.626 15.4475 20.6505 15.4564 20.6748 15.4651L20.6777 15.4661C20.9762 15.582 21.2322 15.7862 21.4116 16.0515L21.4119 16.052C21.421 16.0655 21.4329 16.0769 21.4469 16.0852C21.4608 16.0936 21.4764 16.0987 21.4926 16.1003C21.5088 16.1019 21.5251 16.0998 21.5404 16.0943C21.5549 16.0891 21.568 16.0809 21.5791 16.0703C21.5888 16.0591 21.5959 16.0459 21.5999 16.0316C21.6042 16.0165 21.6049 16.0006 21.6021 15.9852C21.5992 15.9697 21.5928 15.9551 21.5834 15.9426C21.5741 15.9301 21.562 15.92 21.5482 15.9129C21.4242 15.8517 21.2739 15.7673 21.1466 15.6657C21.0233 15.5673 20.9018 15.4373 20.8681 15.2805C20.8263 15.0959 20.8182 14.9603 20.8877 14.8602C20.9217 14.8113 20.9668 14.7823 21.0018 14.762C21.016 14.7537 21.0283 14.7469 21.04 14.7404C21.0603 14.7293 21.0786 14.7192 21.1005 14.7048C21.2678 14.5715 21.4271 14.4283 21.5774 14.2761C21.5792 14.2743 21.5811 14.2725 21.583 14.2708C21.5837 14.2702 21.5844 14.2695 21.5852 14.2689C21.597 14.2589 21.6066 14.2465 21.6133 14.2325C21.62 14.2185 21.6236 14.2032 21.624 14.1877C21.6244 14.1721 21.6214 14.1567 21.6154 14.1424C21.6093 14.1281 21.6003 14.1153 21.5889 14.1047C21.5776 14.0941 21.5641 14.0861 21.5494 14.0812C21.5347 14.0762 21.5191 14.0744 21.5036 14.0759C21.4882 14.0774 21.4732 14.0822 21.4597 14.0899C21.4463 14.0976 21.4346 14.1081 21.4255 14.1207L21.4247 14.1217C21.3246 14.2567 21.1585 14.4516 20.9416 14.5981C20.7237 14.7452 20.4452 14.8494 20.1292 14.782M21.4807 13.8416C21.4321 13.8463 21.3851 13.8613 21.3427 13.8856L21.4807 13.8416ZM21.3427 13.8856C21.3005 13.9098 21.2639 13.9426 21.2353 13.9819L21.3427 13.8856ZM21.2353 13.9819C21.1428 14.1065 20.9954 14.2776 20.8098 14.403C20.6249 14.5279 20.4115 14.6015 20.1784 14.5518" fill="#047857"/>
<path d="M22.3759 31.0792C21.0382 30.8653 19.1922 29.9283 19.1922 28.1934C19.1922 26.4586 18.9248 16.4586 19.1922 15.7897C19.4595 15.1209 20.0486 15.3654 20.6351 15.5759C20.9112 15.6831 21.1481 15.872 21.3141 16.1174C21.3328 16.1454 21.3575 16.1689 21.3864 16.1862C21.4153 16.2035 21.4477 16.2142 21.4813 16.2174C21.5148 16.2207 21.5487 16.2164 21.5804 16.205C21.6121 16.1936 21.6409 16.1752 21.6646 16.1513C21.6873 16.1262 21.7039 16.0963 21.7132 16.0637C21.7224 16.0312 21.724 15.997 21.7178 15.9637C21.7117 15.9304 21.6979 15.899 21.6777 15.872C21.6574 15.8449 21.6311 15.8228 21.6009 15.8076C21.3599 15.6887 21.0323 15.4867 20.9831 15.255C20.8982 14.8807 21.0094 14.907 21.1698 14.8001C21.3422 14.6629 21.5063 14.5155 21.6612 14.3588C21.6858 14.338 21.7057 14.3122 21.7195 14.2832C21.7334 14.2541 21.741 14.2225 21.7417 14.1903C21.7424 14.1582 21.7364 14.1262 21.7238 14.0966C21.7113 14.0669 21.6926 14.0403 21.669 14.0184C21.6455 13.9965 21.6175 13.9798 21.587 13.9696C21.5565 13.9593 21.5242 13.9556 21.4922 13.9587C21.4601 13.9618 21.4291 13.9717 21.4012 13.9877C21.3733 14.0037 21.3491 14.0255 21.3302 14.0515C21.1375 14.3112 20.703 14.784 20.1538 14.6668C19.4044 14.5064 18.896 13.8911 19.1353 12.6298C19.3051 11.7582 19.9968 10.8093 20.4084 10.3094C20.4393 10.277 20.4619 10.2377 20.4742 10.1947C20.4864 10.1518 20.4881 10.1064 20.479 10.0627C20.4699 10.0189 20.4503 9.97804 20.4219 9.94354C20.3935 9.90903 20.3571 9.88195 20.3159 9.86461C20.2501 9.83475 20.1753 9.8315 20.1071 9.85554C20.0389 9.87959 19.9827 9.92906 19.9501 9.99362C19.7082 10.4749 19.0555 11.6614 18.5217 11.6402C18.0523 11.6215 17.5032 11.3134 17.2188 11.131C17.2 11.1182 17.1788 11.1096 17.1565 11.1056C17.1341 11.1016 17.1112 11.1022 17.0891 11.1076C17.0671 11.113 17.0464 11.1229 17.0284 11.1367C17.0104 11.1505 16.9955 11.1679 16.9846 11.1878C16.9657 11.2247 16.962 11.2675 16.9744 11.307C16.9868 11.3466 17.0142 11.3797 17.0508 11.3992C17.6101 11.6928 18.2059 12.3005 18.2806 12.5764C18.3613 12.8709 18.2008 13.3521 17.6661 14.3418C17.1314 15.3314 15.6291 15.8398 14.8839 14.7432C14.2898 13.8707 14.1319 11.9491 14.2177 11.0826C14.2222 11.0437 14.219 11.0043 14.2082 10.9667C14.1973 10.9291 14.179 10.8941 14.1545 10.8636C14.1299 10.8332 14.0994 10.808 14.065 10.7894C14.0305 10.7709 13.9926 10.7595 13.9537 10.7558C13.9142 10.7532 13.8746 10.7588 13.8374 10.7723C13.8001 10.7858 13.7661 10.8068 13.7374 10.8341C13.7087 10.8613 13.686 10.8943 13.6706 10.9307C13.6552 10.9672 13.6476 11.0065 13.6481 11.0461C13.6583 11.6971 13.9622 13.0831 13.7067 13.8071C13.3859 14.7169 12.3428 15.171 11.7003 14.6898C11.2487 14.3503 11.3404 13.4811 11.4346 12.9923C11.444 12.9613 11.4449 12.9283 11.4374 12.8968C11.4299 12.8653 11.4142 12.8363 11.3918 12.8129C11.3695 12.7894 11.3414 12.7723 11.3103 12.7633C11.2791 12.7542 11.2462 12.7536 11.2148 12.7614C11.1715 12.7694 11.1325 12.7922 11.1044 12.8261C11.0763 12.8599 11.061 12.9025 11.0611 12.9464C11.0611 13.2664 11.0246 14.0727 10.6843 14.2849C10.4042 14.4598 10.136 14.2467 9.98408 14.0778C9.95424 14.0439 9.91261 14.0227 9.86767 14.0184C9.82272 14.0142 9.77785 14.0272 9.74218 14.0549C9.72281 14.0704 9.70697 14.0899 9.69572 14.1121C9.68448 14.1342 9.67808 14.1585 9.67695 14.1833C9.67583 14.2082 9.68001 14.2329 9.6892 14.256C9.6984 14.2791 9.71241 14.2999 9.7303 14.3172C9.84149 14.4233 10.0248 14.5964 10.2472 14.8043C10.327 14.9172 10.4348 15.1141 10.3635 15.2754C10.2922 15.4367 9.92212 15.5181 9.70229 15.5496C9.68234 15.5525 9.66326 15.5597 9.64631 15.5706C9.62937 15.5816 9.61495 15.596 9.60402 15.613C9.5931 15.6299 9.58592 15.649 9.58296 15.6689C9.58 15.6889 9.58133 15.7092 9.58686 15.7286V15.7354C9.59294 15.756 9.60357 15.775 9.61797 15.791C9.63237 15.8069 9.65016 15.8194 9.67004 15.8276C9.68992 15.8357 9.71138 15.8393 9.73283 15.838C9.75427 15.8368 9.77516 15.8307 9.79396 15.8203C10.0902 15.665 10.787 15.6506 10.9415 15.6556C11.7257 15.7057 12.493 16.2014 12.9097 16.8575C13.3265 17.5136 13.3052 18.4149 13.3519 19.1678C13.4589 20.906 13.4911 28.9098 13.0362 29.5786C12.5813 30.2474 10.9143 31.1437 10.9143 31.1437" fill="#047857"/>
<path fill-rule="evenodd" clip-rule="evenodd" d="M20.3631 9.75679C20.4212 9.78154 20.4726 9.81995 20.5128 9.86876C20.5533 9.91799 20.5813 9.97633 20.5943 10.0388C20.6072 10.1012 20.6049 10.1658 20.5873 10.2272C20.5702 10.2869 20.5392 10.3418 20.4968 10.3873C20.2936 10.6343 20.0228 10.9904 19.7821 11.3909C19.5397 11.7942 19.3321 12.2357 19.2509 12.6521C19.1346 13.2655 19.2036 13.7033 19.3758 14.0025C19.5467 14.2994 19.8293 14.477 20.1784 14.5518M20.3631 9.75679C20.2699 9.71499 20.1642 9.7106 20.0679 9.74457C19.9711 9.77872 19.8912 9.84899 19.845 9.94068C19.725 10.1793 19.5048 10.5895 19.2505 10.9357C19.1231 11.1091 18.9905 11.2618 18.8611 11.3689C18.7289 11.4781 18.6164 11.5262 18.5263 11.5226C18.313 11.5141 18.0741 11.439 17.8484 11.3394C17.6248 11.2407 17.4224 11.1217 17.2834 11.0326C17.2514 11.0112 17.2152 10.9966 17.1773 10.9898C17.1388 10.9828 17.0993 10.984 17.0614 10.9932C17.0234 11.0025 16.9877 11.0195 16.9567 11.0433C16.9257 11.0671 16.9 11.0971 16.8813 11.1314L16.8798 11.1341C16.8468 11.1985 16.8404 11.2733 16.8621 11.3423C16.8837 11.4113 16.9316 11.4691 16.9954 11.5031L16.996 11.5034C17.2632 11.6437 17.5429 11.8614 17.7651 12.0787C17.876 12.187 17.9707 12.2935 18.0413 12.3879C18.1141 12.4851 18.1543 12.5603 18.167 12.6072L18.1671 12.6075C18.1979 12.7203 18.1872 12.8866 18.0928 13.1601C17.9992 13.4315 17.8292 13.7924 17.5625 14.2859C17.3118 14.75 16.8316 15.1031 16.3295 15.2097C15.8335 15.3151 15.3231 15.1801 14.9813 14.6771C14.6999 14.2639 14.5148 13.5875 14.4123 12.8935C14.3104 12.2035 14.2931 11.5169 14.3347 11.0952C14.3409 11.0412 14.3363 10.9864 14.3213 10.9341C14.306 10.8814 14.2805 10.8323 14.246 10.7897C14.2116 10.7471 14.1689 10.7117 14.1206 10.6858C14.0723 10.6598 14.0194 10.6438 13.9648 10.6387L13.9614 10.6384C13.9056 10.6347 13.8498 10.6427 13.7973 10.6617C13.7448 10.6807 13.6968 10.7103 13.6563 10.7488C13.6158 10.7872 13.5837 10.8336 13.5621 10.8851C13.5404 10.9366 13.5296 10.9919 13.5304 11.0478C13.5331 11.217 13.5547 11.4313 13.5805 11.6634C13.586 11.713 13.5918 11.7636 13.5976 11.8149C13.6192 12.0056 13.642 12.2067 13.6598 12.4095C13.7052 12.9299 13.7138 13.4331 13.5957 13.7679C13.4464 14.1913 13.129 14.5079 12.7768 14.6623C12.4243 14.8169 12.0501 14.8047 11.7709 14.5956C11.5873 14.4575 11.5013 14.2001 11.4802 13.8891C11.4596 13.5852 11.5032 13.2596 11.5492 13.0198C11.5628 12.9708 11.5637 12.9191 11.5519 12.8696C11.5396 12.8178 11.5138 12.7703 11.4771 12.7317C11.4404 12.6932 11.3942 12.6651 11.3431 12.6503C11.2932 12.6357 11.2404 12.6344 11.1899 12.6464C11.1209 12.6599 11.0587 12.6968 11.0138 12.7509C10.9681 12.8059 10.9432 12.8753 10.9434 12.9468L11.0611 12.9465H10.9434C10.9434 13.1034 10.9344 13.3764 10.8847 13.6339C10.8599 13.7626 10.8258 13.8831 10.78 13.9817C10.7337 14.0814 10.6801 14.1488 10.622 14.1851C10.5213 14.248 10.4261 14.2427 10.333 14.2023C10.2346 14.1596 10.1431 14.0786 10.072 13.9995C10.0224 13.9435 9.9533 13.9084 9.87876 13.9013C9.80399 13.8942 9.72933 13.9159 9.66999 13.9619L9.66849 13.9631C9.63607 13.9892 9.60957 14.0218 9.59075 14.0588C9.57193 14.0959 9.56122 14.1365 9.55934 14.1781C9.55746 14.2196 9.56444 14.261 9.57984 14.2996C9.59523 14.3383 9.61867 14.3731 9.6486 14.402L9.64902 14.4024C9.75906 14.5074 9.93924 14.6776 10.1577 14.8819C10.1924 14.9322 10.2288 14.9951 10.2504 15.0592C10.2736 15.1284 10.2748 15.1848 10.2558 15.2279C10.2512 15.2382 10.2364 15.2579 10.1975 15.2827C10.1601 15.3067 10.1098 15.3294 10.0502 15.3499C9.93124 15.391 9.79197 15.4179 9.68563 15.4331L9.68494 15.4332C9.64843 15.4386 9.6135 15.4518 9.58247 15.4718C9.55146 15.4918 9.52506 15.5182 9.50506 15.5492C9.48506 15.5803 9.47191 15.6152 9.46649 15.6517C9.46193 15.6825 9.46294 15.7138 9.46945 15.7442C9.47006 15.7525 9.47157 15.7608 9.47394 15.7688C9.48501 15.8063 9.50436 15.8409 9.53058 15.8699C9.55679 15.8989 9.58919 15.9217 9.62539 15.9365C9.66158 15.9514 9.70064 15.9579 9.7397 15.9556C9.77821 15.9534 9.81573 15.9426 9.84957 15.9241C9.97528 15.8586 10.2017 15.8174 10.4322 15.795C10.6561 15.7733 10.8623 15.771 10.9358 15.7733C11.6782 15.8214 12.4121 16.2937 12.8103 16.9207C13.0055 17.2279 13.1012 17.5978 13.1529 17.9917C13.1898 18.2733 13.2034 18.5584 13.2167 18.8376C13.2221 18.9513 13.2275 19.064 13.2344 19.1751C13.2876 20.0396 13.3225 22.4714 13.287 24.7725C13.2693 25.9225 13.2341 27.0377 13.175 27.9062C13.1455 28.3407 13.1101 28.7115 13.0683 28.9933C13.0474 29.1343 13.0252 29.2509 13.0019 29.3412C12.9777 29.4348 12.9552 29.4884 12.9388 29.5124C12.835 29.6651 12.6563 29.8378 12.4387 30.0138C12.2227 30.1884 11.9754 30.3607 11.7405 30.5133C11.5059 30.6657 11.2851 30.7975 11.1229 30.8913C11.0419 30.9382 10.9756 30.9755 10.9296 31.001C10.9067 31.0138 10.8888 31.0236 10.8767 31.0302L10.863 31.0376L10.8588 31.0399C10.8015 31.0707 10.7798 31.1422 10.8106 31.1995C10.8414 31.2567 10.9128 31.2782 10.97 31.2474L10.9143 31.1437C10.97 31.2474 10.97 31.2474 10.97 31.2474L10.9704 31.2472L10.9752 31.2446L10.9896 31.2368C11.0021 31.23 11.0205 31.2199 11.044 31.2068C11.091 31.1807 11.1585 31.1428 11.2408 31.0951C11.4054 31 11.6298 30.8659 11.8688 30.7107C12.1075 30.5556 12.3622 30.3784 12.5867 30.1969C12.8096 30.0167 13.0099 29.8266 13.1335 29.6448C13.1741 29.5852 13.2046 29.498 13.2299 29.4C13.256 29.2987 13.2797 29.1731 13.3012 29.0278C13.3443 28.7371 13.3802 28.3593 13.4099 27.9222C13.4694 27.0476 13.5047 25.9278 13.5225 24.7761C13.5579 22.4735 13.5232 20.0343 13.4694 19.1606C13.463 19.0564 13.4578 18.9478 13.4524 18.8365C13.4389 18.5536 13.4246 18.2529 13.3863 17.9611C13.3327 17.552 13.2307 17.1432 13.0091 16.7944C12.5742 16.1098 11.7744 15.5909 10.949 15.5382L10.9453 15.538C10.8628 15.5353 10.6449 15.5378 10.4095 15.5607C10.1795 15.583 9.90998 15.6266 9.73927 15.7161L9.73689 15.7174C9.73352 15.7192 9.72977 15.7203 9.72593 15.7206C9.72209 15.7208 9.71824 15.7201 9.71467 15.7187C9.71111 15.7172 9.70792 15.715 9.70534 15.7121C9.70445 15.7111 9.70364 15.7101 9.70291 15.709C9.70219 15.7047 9.70124 15.7005 9.70006 15.6964C9.69912 15.6931 9.69889 15.6897 9.69939 15.6863C9.6999 15.6829 9.70111 15.6797 9.70296 15.6768C9.70481 15.6739 9.70726 15.6715 9.71013 15.6696C9.713 15.6678 9.71623 15.6665 9.71961 15.666L9.70228 15.5496L9.71893 15.6661C9.83242 15.6499 9.98809 15.6204 10.1269 15.5725C10.1963 15.5486 10.2656 15.5187 10.3244 15.4811C10.3819 15.4443 10.44 15.3934 10.4711 15.3231C10.5234 15.2049 10.5064 15.0821 10.4736 14.9843C10.4405 14.8857 10.3866 14.7976 10.3433 14.7365C10.3387 14.7299 10.3334 14.7239 10.3276 14.7184C10.1056 14.5108 9.92266 14.338 9.81182 14.2323C9.80605 14.2267 9.80153 14.2199 9.79855 14.2125C9.79554 14.2049 9.79418 14.1968 9.79455 14.1887C9.79491 14.1806 9.797 14.1727 9.80068 14.1654C9.80421 14.1585 9.80912 14.1523 9.81512 14.1474C9.82699 14.1385 9.84176 14.1343 9.85655 14.1357C9.87167 14.1371 9.88567 14.1443 9.89571 14.1557L9.89654 14.1566C9.97724 14.2463 10.0957 14.356 10.2393 14.4183C10.3882 14.4829 10.5673 14.4968 10.7466 14.3848C10.8587 14.3149 10.9373 14.2021 10.9935 14.0809C11.0503 13.9586 11.0891 13.8178 11.1159 13.6784C11.1697 13.3996 11.1789 13.1095 11.1789 12.9465L11.1789 12.9461C11.1788 12.9298 11.1845 12.9139 11.195 12.9013C11.2054 12.8887 11.22 12.8802 11.2361 12.8772C11.2385 12.8768 11.2408 12.8763 11.2432 12.8757C11.2545 12.8729 11.2662 12.8731 11.2774 12.8763C11.2885 12.8796 11.2986 12.8857 11.3066 12.8941C11.3146 12.9025 11.3202 12.9129 11.3229 12.9241C11.3256 12.9354 11.3252 12.9472 11.3219 12.9583C11.3207 12.9622 11.3197 12.9661 11.319 12.97C11.2711 13.2186 11.2226 13.5695 11.2453 13.905C11.2677 14.2357 11.3616 14.5825 11.6295 14.7839C11.9928 15.056 12.4615 15.0576 12.8714 14.878C13.2816 14.6981 13.6462 14.3328 13.8177 13.8463C13.955 13.4572 13.9394 12.9054 13.8943 12.389C13.8763 12.1829 13.853 11.9778 13.8314 11.7868C13.8256 11.7359 13.8199 11.686 13.8145 11.6373C13.7885 11.4039 13.7683 11.2007 13.7658 11.0444C13.7655 11.0211 13.77 10.998 13.7791 10.9765C13.7881 10.955 13.8016 10.9356 13.8185 10.9195C13.8354 10.9034 13.8555 10.891 13.8774 10.8831C13.8988 10.8753 13.9216 10.872 13.9443 10.8732C13.967 10.8756 13.9891 10.8824 14.0092 10.8932C14.0299 10.9043 14.0481 10.9194 14.0629 10.9377C14.0776 10.9559 14.0885 10.9769 14.095 10.9994C14.1015 11.0219 14.1035 11.0455 14.1007 11.0688L14.1005 11.071C14.0565 11.516 14.0753 12.2229 14.1794 12.9279C14.2829 13.6294 14.4738 14.3502 14.7865 14.8095C15.19 15.4031 15.8033 15.5622 16.3784 15.4401C16.9474 15.3192 17.4858 14.9233 17.7697 14.3978C18.0378 13.9016 18.2153 13.527 18.3154 13.2368C18.4148 12.9488 18.4439 12.7273 18.3942 12.5457M20.2673 9.97187C20.2291 9.95456 20.1857 9.95268 20.1462 9.96662C20.1067 9.98054 20.0742 10.0092 20.0553 10.0465M20.331 10.0184C20.3147 9.99863 20.2939 9.98311 20.2703 9.97317L20.2673 9.97187M20.331 10.0184C20.3473 10.0382 20.3585 10.0616 20.3637 10.0867L20.331 10.0184ZM20.3637 10.0867C20.369 10.1118 20.368 10.1378 20.361 10.1624L20.3637 10.0867ZM20.361 10.1624C20.3539 10.187 20.341 10.2096 20.3233 10.2281L20.361 10.1624ZM20.3233 10.2281C20.3213 10.2302 20.3194 10.2323 20.3176 10.2346L20.3233 10.2281ZM20.3176 10.2346C20.1094 10.4874 19.8298 10.8544 19.5803 11.2696L20.3176 10.2346ZM19.5803 11.2696C19.3315 11.6835 19.1084 12.1522 19.0198 12.6074L19.5803 11.2696ZM17.0887 11.2429C17.0844 11.252 17.0837 11.2623 17.0867 11.2719C17.0898 11.2818 17.0967 11.2902 17.1058 11.2951C17.3979 11.4486 17.6957 11.6815 17.9297 11.9103C18.0471 12.0251 18.1503 12.1406 18.2298 12.2469C18.3072 12.3503 18.3695 12.4544 18.3942 12.5453M19.0198 12.6074L19.0196 12.6079L19.0198 12.6074ZM19.0196 12.6079C18.8967 13.2556 18.9622 13.7561 19.1717 14.1199L19.0196 12.6079ZM19.1717 14.1199C19.3825 14.4861 19.7288 14.6963 20.1292 14.782L19.1717 14.1199ZM21.4807 13.8416C21.5293 13.8368 21.5784 13.8424 21.6246 13.8581C21.6709 13.8737 21.7133 13.8989 21.7491 13.9321C21.7849 13.9654 21.8133 14.0058 21.8323 14.0508C21.8513 14.0958 21.8605 14.1443 21.8594 14.1931C21.8583 14.2419 21.8468 14.2899 21.8257 14.334C21.8055 14.3763 21.7769 14.414 21.7416 14.4449C21.5844 14.6038 21.4179 14.7532 21.243 14.8923C21.2405 14.8943 21.2378 14.8963 21.2351 14.8981C21.2031 14.9194 21.1686 14.9385 21.1435 14.9524C21.1343 14.9575 21.1263 14.9619 21.1202 14.9655C21.0918 14.982 21.0844 14.9898 21.0811 14.9945C21.0763 15.0015 21.0549 15.0397 21.0979 15.2291L21.0982 15.2306C21.114 15.3051 21.1807 15.3917 21.2935 15.4817C21.4023 15.5685 21.5361 15.6444 21.653 15.702L21.6541 15.7026C21.7004 15.726 21.7407 15.7599 21.7719 15.8014C21.803 15.843 21.8241 15.8912 21.8336 15.9423C21.843 15.9934 21.8406 16.046 21.8264 16.0959C21.8122 16.1459 21.7867 16.1919 21.7518 16.2304C21.7506 16.2317 21.7494 16.2331 21.7481 16.2343C21.7121 16.2706 21.6684 16.2984 21.6203 16.3158C21.5722 16.3331 21.5208 16.3396 21.4699 16.3347C21.419 16.3297 21.3698 16.3135 21.326 16.2873C21.2822 16.2611 21.2447 16.2255 21.2163 16.1831C21.0641 15.9581 20.8469 15.7848 20.5938 15.6862C20.5726 15.6786 20.5516 15.671 20.5307 15.6635C20.2541 15.5638 20.0051 15.474 19.7922 15.4708C19.6823 15.4692 19.5904 15.4913 19.5131 15.5426C19.4358 15.5941 19.3618 15.6825 19.3015 15.8335C19.2914 15.8588 19.2779 15.9222 19.2651 16.0337C19.2527 16.1407 19.242 16.2806 19.233 16.4499C19.2148 16.7883 19.2034 17.2387 19.1971 17.7675C19.1846 18.8247 19.1929 20.1904 19.2096 21.5905C19.2264 22.9987 19.2517 24.4425 19.2727 25.6399C19.2934 26.821 19.3099 27.7624 19.3099 28.1935C19.3099 29.0136 19.7447 29.6501 20.3536 30.113C20.9642 30.577 21.741 30.8585 22.3944 30.963C22.4586 30.9732 22.5024 31.0336 22.4921 31.0978C22.4818 31.162 22.4215 31.2057 22.3573 31.1955C21.673 31.0861 20.8581 30.7921 20.2112 30.3004C19.5627 29.8076 19.0744 29.1082 19.0744 28.1935C19.0744 27.7635 19.058 26.8259 19.0374 25.6479C19.0164 24.4511 18.9911 23.0062 18.9742 21.5933C18.9575 20.1928 18.9491 18.8248 18.9617 17.7647C18.9679 17.2348 18.9795 16.7806 18.9979 16.4373C19.0071 16.2658 19.018 16.1206 19.0312 16.0068C19.0438 15.8975 19.0596 15.8044 19.0829 15.7461C19.1562 15.5627 19.2561 15.4308 19.3827 15.3466C19.5095 15.2623 19.6516 15.2332 19.7957 15.2354C20.0504 15.2392 20.337 15.3429 20.6013 15.4386C20.626 15.4475 20.6505 15.4564 20.6748 15.4651L20.6777 15.4661C20.9762 15.582 21.2322 15.7862 21.4116 16.0515L21.4119 16.052C21.421 16.0655 21.4329 16.0769 21.4469 16.0852C21.4608 16.0936 21.4764 16.0987 21.4926 16.1003C21.5088 16.1019 21.5251 16.0998 21.5404 16.0943C21.5549 16.0891 21.568 16.0809 21.5791 16.0703C21.5888 16.0591 21.5959 16.0459 21.5999 16.0316C21.6042 16.0165 21.6049 16.0006 21.6021 15.9852C21.5992 15.9697 21.5928 15.9551 21.5834 15.9426C21.5741 15.9301 21.562 15.92 21.5482 15.9129C21.4242 15.8517 21.2739 15.7673 21.1466 15.6657C21.0233 15.5673 20.9018 15.4373 20.8681 15.2805C20.8263 15.0959 20.8182 14.9603 20.8877 14.8602C20.9217 14.8113 20.9668 14.7823 21.0018 14.762C21.016 14.7537 21.0283 14.7469 21.04 14.7404C21.0603 14.7293 21.0786 14.7192 21.1005 14.7048C21.2678 14.5715 21.4271 14.4283 21.5774 14.2761C21.5792 14.2743 21.5811 14.2725 21.583 14.2708C21.5837 14.2702 21.5844 14.2695 21.5852 14.2689C21.597 14.2589 21.6066 14.2465 21.6133 14.2325C21.62 14.2185 21.6236 14.2032 21.624 14.1877C21.6244 14.1721 21.6214 14.1567 21.6154 14.1424C21.6093 14.1281 21.6003 14.1153 21.5889 14.1047C21.5776 14.0941 21.5641 14.0861 21.5494 14.0812C21.5347 14.0762 21.5191 14.0744 21.5036 14.0759C21.4882 14.0774 21.4732 14.0822 21.4597 14.0899C21.4463 14.0976 21.4346 14.1081 21.4255 14.1207L21.4247 14.1217C21.3246 14.2567 21.1585 14.4516 20.9416 14.5981C20.7237 14.7452 20.4452 14.8494 20.1292 14.782M21.4807 13.8416C21.4321 13.8463 21.3851 13.8613 21.3427 13.8856L21.4807 13.8416ZM21.3427 13.8856C21.3005 13.9098 21.2639 13.9426 21.2353 13.9819L21.3427 13.8856ZM21.2353 13.9819C21.1428 14.1065 20.9954 14.2776 20.8098 14.403C20.6249 14.5279 20.4115 14.6015 20.1784 14.5518" fill="#047857"/>
<g style="mix-blend-mode:multiply" opacity="0.5">
<path d="M16.2249 29.532C16.2249 29.532 15.9754 29.0533 15.2853 29.4743C14.5953 29.8952 14.5215 30.4715 14.0394 30.6252C13.5573 30.7788 13.2534 30.6056 13.1575 31.0079C13.0616 31.4103 12.9657 31.5639 13.0421 31.6216C13.1185 31.6793 13.0998 31.1972 13.368 31.0852C13.6362 30.9732 14.1158 30.9511 14.4799 30.6608C14.844 30.3705 15.669 29.4174 16.2249 29.532Z" fill="#047857"/>
</g>
<path fill-rule="evenodd" clip-rule="evenodd" d="M12.2697 15.8843C12.3014 15.8275 12.3732 15.8072 12.4299 15.839C12.9103 16.1077 13.2678 16.5521 13.4272 17.0789C13.4461 17.1411 13.4109 17.2068 13.3487 17.2257C13.2864 17.2445 13.2207 17.2093 13.2019 17.1471C13.0601 16.6786 12.7422 16.2834 12.315 16.0445C12.2582 16.0127 12.238 15.941 12.2697 15.8843Z" fill="#047857"/>
<path fill-rule="evenodd" clip-rule="evenodd" d="M13.3605 17.1862C13.4246 17.1755 13.4853 17.2188 13.496 17.2829C13.5291 17.4811 13.5522 17.6807 13.5653 17.8811C13.5695 17.946 13.5203 18.002 13.4555 18.0063C13.3906 18.0105 13.3346 17.9614 13.3303 17.8965C13.3177 17.7039 13.2955 17.5121 13.2638 17.3217C13.2531 17.2576 13.2964 17.1969 13.3605 17.1862Z" fill="#047857"/>
<path fill-rule="evenodd" clip-rule="evenodd" d="M13.5533 18.6182C13.6182 18.616 13.6727 18.6669 13.675 18.7318L13.5573 18.7359L13.4396 18.7399C13.4374 18.675 13.4883 18.6205 13.5533 18.6182ZM13.5573 18.7359C13.4396 18.7399 13.4396 18.7399 13.4396 18.7399L13.4417 18.8027C13.4431 18.8438 13.4451 18.9045 13.4475 18.9824C13.4525 19.1384 13.4593 19.3635 13.4671 19.6402C13.4827 20.1936 13.5018 20.9534 13.5163 21.7787C13.5453 23.4315 13.5553 25.3408 13.4806 26.3858C13.476 26.4506 13.5248 26.507 13.5897 26.5116C13.6545 26.5162 13.7108 26.4674 13.7155 26.4026C13.791 25.3452 13.7807 23.4253 13.7517 21.7746C13.7372 20.9482 13.718 20.1875 13.7025 19.6335C13.6947 19.3565 13.6878 19.1312 13.6829 18.975C13.6804 18.8969 13.6784 18.8362 13.6771 18.7949L13.675 18.7318C13.675 18.7318 13.675 18.7318 13.5573 18.7359Z" fill="#047857"/>
<path fill-rule="evenodd" clip-rule="evenodd" d="M13.6038 26.5634C13.6688 26.5666 13.7188 26.6218 13.7156 26.6867L13.598 26.681L13.4805 26.6752C13.4837 26.6102 13.5389 26.5602 13.6038 26.5634ZM13.598 26.681L13.4805 26.6752L13.4775 26.7348C13.4756 26.7729 13.4728 26.8275 13.4694 26.8938C13.4626 27.0265 13.4533 27.2055 13.443 27.3914C13.4224 27.7664 13.3987 28.1597 13.3854 28.2633C13.3771 28.3278 13.4227 28.3868 13.4871 28.3951C13.5516 28.4034 13.6106 28.3578 13.6189 28.2933C13.6336 28.1788 13.6578 27.7734 13.6781 27.4043C13.6884 27.2181 13.6978 27.0387 13.7046 26.9059C13.708 26.8395 13.7107 26.7847 13.7127 26.7465L13.7156 26.6867L13.598 26.681Z" fill="#047857"/>
<path fill-rule="evenodd" clip-rule="evenodd" d="M14.127 19.7784C14.192 19.7766 14.2461 19.8278 14.2479 19.8928L14.2759 20.9164C14.2776 20.9814 14.2264 21.0355 14.1614 21.0373C14.0964 21.0391 14.0423 20.9879 14.0405 20.9229L14.0125 19.8993C14.0107 19.8343 14.062 19.7801 14.127 19.7784Z" fill="#047857"/>
<path fill-rule="evenodd" clip-rule="evenodd" d="M14.1697 21.1431C14.2347 21.1419 14.2884 21.1937 14.2895 21.2587L14.1718 21.2608L14.0541 21.2629C14.0529 21.1979 14.1047 21.1442 14.1697 21.1431ZM14.1718 21.2608C14.0541 21.2629 14.0541 21.2628 14.0541 21.2629L14.0569 21.43C14.0587 21.5374 14.0611 21.6921 14.0639 21.8818C14.0694 22.2611 14.0762 22.7801 14.0812 23.3388C14.0914 24.4574 14.0948 25.7307 14.0678 26.3619C14.065 26.4268 14.1154 26.4817 14.1804 26.4845C14.2453 26.4873 14.3002 26.4369 14.303 26.3719C14.3303 25.7334 14.3269 24.4536 14.3167 23.3366C14.3116 22.7774 14.3048 22.258 14.2993 21.8784C14.2965 21.6885 14.2941 21.5336 14.2923 21.4262L14.2895 21.2587C14.2895 21.2587 14.2895 21.2587 14.1718 21.2608Z" fill="#047857"/>
<path fill-rule="evenodd" clip-rule="evenodd" d="M14.6874 27.0962C14.7524 27.0946 14.8064 27.1459 14.808 27.2109L14.8216 27.7431C14.8233 27.8081 14.7719 27.8621 14.7069 27.8638C14.6419 27.8654 14.5879 27.8141 14.5863 27.7491L14.5727 27.2169C14.571 27.1519 14.6224 27.0979 14.6874 27.0962Z" fill="#047857"/>
<path fill-rule="evenodd" clip-rule="evenodd" d="M18.3729 12.3119C18.4296 12.2799 18.5014 12.2999 18.5334 12.3565L18.4309 12.4144C18.5334 12.3565 18.5334 12.3565 18.5334 12.3566L18.5335 12.3567L18.5336 12.3569L18.5339 12.3575L18.5346 12.3587L18.5362 12.3618C18.5375 12.3642 18.539 12.3672 18.5407 12.3708C18.5442 12.3781 18.5485 12.3879 18.5533 12.4002C18.5629 12.4248 18.5744 12.4596 18.5845 12.5048C18.6047 12.5955 18.6192 12.7272 18.6033 12.9029L18.6029 12.9068L18.6028 12.9068C18.5724 13.1504 18.5043 13.3879 18.401 13.6106C18.3736 13.6696 18.3036 13.6952 18.2447 13.6678C18.1857 13.6405 18.1601 13.5705 18.1874 13.5115C18.2802 13.3115 18.3414 13.0984 18.369 12.8796C18.3824 12.7287 18.3694 12.6221 18.3547 12.5561C18.3473 12.5228 18.3394 12.4995 18.334 12.4858C18.3313 12.4789 18.3292 12.4743 18.3282 12.4721C18.3278 12.4714 18.3276 12.471 18.3275 12.4707C18.3275 12.4707 18.3275 12.4707 18.3275 12.4707C18.3274 12.4706 18.3274 12.4705 18.3274 12.4705L18.3276 12.471L18.3279 12.4715L18.3281 12.4719L18.3282 12.4721" fill="#047857"/>
<path fill-rule="evenodd" clip-rule="evenodd" d="M18.2798 13.6606C18.3377 13.6902 18.3607 13.7611 18.3312 13.819L18.2263 13.7655L18.1215 13.7119C18.151 13.654 18.2219 13.631 18.2798 13.6606ZM18.1215 13.7119L18.2263 13.7655L18.3312 13.819L18.3274 13.8264L18.3167 13.8471C18.3075 13.865 18.2942 13.8907 18.278 13.9218C18.2456 13.984 18.2014 14.0682 18.154 14.1559C18.1067 14.2435 18.0559 14.3353 18.0106 14.4126C17.9675 14.486 17.9233 14.5571 17.8901 14.5946C17.8471 14.6433 17.7727 14.6479 17.724 14.6048C17.6753 14.5618 17.6707 14.4874 17.7137 14.4386C17.729 14.4214 17.7619 14.3712 17.8075 14.2935C17.8508 14.2197 17.9001 14.1306 17.9468 14.044C17.9934 13.9577 18.0371 13.8746 18.0692 13.813C18.0852 13.7823 18.0983 13.757 18.1074 13.7393L18.1178 13.719L18.1215 13.7119Z" fill="#047857"/>
<path fill-rule="evenodd" clip-rule="evenodd" d="M13.4114 14.6831C13.4554 14.731 13.4522 14.8055 13.4044 14.8494C13.2344 15.0056 13.0284 15.1173 12.8047 15.1745C12.5811 15.2317 12.3468 15.2328 12.1227 15.1775C12.0596 15.1619 12.021 15.0981 12.0366 15.035C12.0522 14.9719 12.116 14.9333 12.1791 14.9489C12.3655 14.9949 12.5604 14.994 12.7464 14.9464C12.9324 14.8988 13.1037 14.8059 13.2451 14.676C13.293 14.6321 13.3674 14.6352 13.4114 14.6831Z" fill="#047857"/>
<path fill-rule="evenodd" clip-rule="evenodd" d="M14.1031 27.1235C14.1681 27.1235 14.2208 27.1762 14.2208 27.2413V29.7807C14.2208 29.7925 14.219 29.8042 14.2155 29.8154L14.1031 29.7807C14.2155 29.8154 14.2155 29.8155 14.2155 29.8156L14.2154 29.8158L14.2153 29.8162L14.215 29.8171L14.2143 29.8193L14.2122 29.8251C14.2106 29.8297 14.2083 29.8356 14.2053 29.8427C14.1993 29.8568 14.1903 29.8756 14.1775 29.8982C14.1518 29.9436 14.1108 30.0037 14.0469 30.0713C13.9188 30.2069 13.7016 30.3697 13.3386 30.5047C13.3334 30.5067 13.3281 30.5082 13.3226 30.5094C13.1532 30.5463 13.0024 30.6421 12.8972 30.7799L12.8962 30.7811L12.8962 30.7811C12.8294 30.8663 12.7771 30.9436 12.7243 31.0215C12.6941 31.0662 12.6637 31.1111 12.6303 31.1579C12.5417 31.282 12.4419 31.4035 12.2942 31.5198C12.2431 31.56 12.1691 31.5512 12.1289 31.5001C12.0887 31.4491 12.0975 31.375 12.1485 31.3348C12.2724 31.2373 12.3573 31.1351 12.4386 31.0211C12.4654 30.9837 12.493 30.943 12.5221 30.9001C12.5782 30.8174 12.6397 30.7267 12.7105 30.6363C12.8479 30.4568 13.0438 30.3312 13.264 30.2812C13.5924 30.158 13.7759 30.0153 13.8757 29.9096C13.9262 29.8562 13.956 29.8115 13.9726 29.7822C13.9783 29.7722 13.9824 29.764 13.9853 29.7578V27.2413C13.9853 27.1762 14.038 27.1235 14.1031 27.1235Z" fill="#047857"/>
<path fill-rule="evenodd" clip-rule="evenodd" d="M14.5303 18.2176C14.5953 18.2163 14.649 18.268 14.6502 18.333L14.7674 24.4517C14.7686 24.5167 14.7169 24.5704 14.6519 24.5716C14.5869 24.5729 14.5332 24.5212 14.5319 24.4562L14.4148 18.3375C14.4136 18.2725 14.4653 18.2188 14.5303 18.2176Z" fill="#047857"/>
<path fill-rule="evenodd" clip-rule="evenodd" d="M14.9643 30.3539C14.8507 30.4632 14.7374 30.5722 14.6269 30.6634C14.3969 30.8531 14.2301 30.9439 14.1145 30.9863C14.0564 31.0076 14.0106 31.0169 13.9759 31.0201C13.9586 31.0218 13.9441 31.0218 13.9324 31.0212C13.9265 31.0208 13.9213 31.0203 13.9169 31.0197C13.9146 31.0194 13.9126 31.0191 13.9107 31.0187L13.908 31.0182L13.9068 31.018L13.9062 31.0178L13.9059 31.0178C13.9058 31.0178 13.9056 31.0177 13.9303 30.9048L13.9056 31.0177C13.8421 31.0038 13.8018 30.9411 13.8157 30.8776C13.829 30.817 13.8866 30.7776 13.947 30.7861C13.9483 30.7861 13.9507 30.786 13.9541 30.7857C13.9662 30.7846 13.992 30.7804 14.0334 30.7652C14.1168 30.7347 14.2607 30.6603 14.4771 30.4817C14.5804 30.3965 14.6878 30.2932 14.8039 30.1816C14.8084 30.1772 14.813 30.1728 14.8176 30.1684C14.9375 30.0531 15.0657 29.9304 15.2008 29.819C15.469 29.5981 15.7826 29.4058 16.1451 29.4058C16.4906 29.4058 16.7495 29.5108 16.9229 29.6176C17.0093 29.6708 17.0743 29.7244 17.1183 29.7653C17.1403 29.7858 17.1571 29.8032 17.1688 29.816C17.1746 29.8223 17.1792 29.8275 17.1825 29.8314L17.1865 29.8361L17.1877 29.8377L17.1882 29.8383L17.1884 29.8385L17.1885 29.8386C17.1885 29.8387 17.1885 29.8387 17.1021 29.9078L17.1886 29.8387C17.2291 29.8895 17.2209 29.9636 17.1701 30.0042C17.1193 30.0448 17.0452 30.0365 17.0046 29.9857L17.0966 29.9122C17.0046 29.9857 17.0047 29.9858 17.0047 29.9858L17.0047 29.9859L17.0048 29.986L17.0034 29.9843C17.0018 29.9825 16.9991 29.9793 16.9952 29.9751C16.9874 29.9666 16.9749 29.9536 16.9578 29.9376C16.9235 29.9057 16.8708 29.862 16.7994 29.8181C16.6573 29.7305 16.4405 29.6412 16.1451 29.6412C15.8669 29.6412 15.6072 29.7893 15.3506 30.0007C15.2234 30.1056 15.1013 30.2222 14.9808 30.3381C14.9753 30.3434 14.9698 30.3487 14.9643 30.3539Z" fill="#047857"/>
<path fill-rule="evenodd" clip-rule="evenodd" d="M17.122 29.9418C17.1806 29.9137 17.251 29.9384 17.2791 29.997C17.3552 30.1554 17.4047 30.3253 17.4257 30.4999C17.4334 30.5644 17.3874 30.623 17.3228 30.6308C17.2583 30.6385 17.1997 30.5925 17.1919 30.5279C17.174 30.379 17.1318 30.2341 17.0669 30.0989C17.0387 30.0403 17.0634 29.97 17.122 29.9418Z" fill="#047857"/>
<path fill-rule="evenodd" clip-rule="evenodd" d="M18.1361 29.5086C18.0402 29.517 17.958 29.5576 17.8915 29.65C17.7582 29.8354 17.8078 30.0602 17.9233 30.2705C17.9793 30.3724 18.0459 30.4613 18.0993 30.5253C18.1258 30.5571 18.1487 30.5822 18.1647 30.5993C18.1727 30.6078 18.1789 30.6142 18.183 30.6184L18.1876 30.6229L18.1885 30.6239C18.2352 30.6692 18.2363 30.7437 18.1911 30.7904C18.1458 30.837 18.0713 30.8382 18.0246 30.7929L18.1066 30.7084C18.0246 30.7929 18.0246 30.7929 18.0246 30.7929L18.0243 30.7926L18.0237 30.792L18.0219 30.7902L18.0155 30.7838C18.0101 30.7783 18.0025 30.7705 17.9932 30.7606C17.9744 30.7406 17.9484 30.712 17.9185 30.6761C17.8589 30.6047 17.7824 30.503 17.717 30.3839C17.5897 30.1522 17.484 29.8134 17.7004 29.5125C17.8088 29.3618 17.9547 29.2881 18.1156 29.274C18.2709 29.2604 18.4341 29.3026 18.5877 29.3686C18.895 29.5005 19.203 29.7446 19.4117 29.9433C19.4588 29.9881 19.4606 30.0626 19.4158 30.1097C19.3709 30.1568 19.2964 30.1586 19.2493 30.1138C19.0498 29.9238 18.7653 29.7011 18.4948 29.5849C18.3595 29.5269 18.2375 29.4997 18.1361 29.5086Z" fill="#047857"/>
<path fill-rule="evenodd" clip-rule="evenodd" d="M19.7301 30.1768C19.7098 30.1287 19.659 30.0984 19.6049 30.1062C19.5405 30.1154 19.4959 30.1751 19.5051 30.2395L19.6216 30.2227C19.5051 30.2395 19.5052 30.2398 19.5052 30.2401L19.5053 30.2407L19.5055 30.2419L19.5059 30.2444C19.5062 30.2461 19.5066 30.2478 19.507 30.2494C19.5077 30.2528 19.5087 30.2562 19.5097 30.2596C19.5119 30.2664 19.5146 30.2732 19.5179 30.2801C19.5244 30.2938 19.5334 30.3078 19.5451 30.3225C19.5682 30.3514 19.6044 30.3858 19.6621 30.4274C19.7768 30.51 19.9892 30.6301 20.3884 30.7958C20.3899 30.7966 20.3923 30.7979 20.3953 30.7996C20.4023 30.8035 20.4127 30.8097 20.4248 30.8179C20.4496 30.835 20.4779 30.8584 20.4994 30.8865C20.5205 30.9141 20.5321 30.9419 20.533 30.971C20.5339 30.9989 20.5254 31.0421 20.4807 31.1023C20.3115 31.3152 20.1219 31.5111 19.9147 31.687C19.8651 31.7291 19.859 31.8034 19.9011 31.853C19.9432 31.9025 20.0175 31.9086 20.0671 31.8665C20.2865 31.6802 20.4871 31.4728 20.6661 31.2474L20.6662 31.2474L20.6682 31.2447C20.7389 31.1503 20.7713 31.0556 20.7684 30.9635C20.7655 30.8724 20.7284 30.7984 20.6863 30.7433C20.6446 30.6889 20.595 30.6492 20.5579 30.6238C20.539 30.6108 20.5224 30.6009 20.5101 30.594C20.504 30.5906 20.4989 30.5879 20.4951 30.586L20.4903 30.5836L20.4887 30.5828L20.4881 30.5825L20.4879 30.5824L20.4878 30.5823C20.4877 30.5823 20.4877 30.5823 20.4373 30.6887L20.4877 30.5823C20.4859 30.5815 20.4842 30.5807 20.4824 30.5799C20.0879 30.4163 19.8935 30.3039 19.7997 30.2364C19.7553 30.2044 19.7365 30.1846 19.7301 30.1768ZM20.3863 30.7948C20.3863 30.7948 20.3863 30.7948 20.3864 30.7948L20.3863 30.7948Z" fill="#047857"/>
<path fill-rule="evenodd" clip-rule="evenodd" d="M13.8888 30.9012C13.9107 30.9624 13.8789 31.0299 13.8177 31.0518C13.6855 31.0992 13.577 31.1963 13.5152 31.3223C13.4592 31.4451 13.4326 31.5216 13.4202 31.565C13.414 31.5867 13.4114 31.5996 13.4105 31.6055C13.4102 31.6067 13.4101 31.6076 13.41 31.6082C13.41 31.6082 13.41 31.6082 13.41 31.6082C13.41 31.6087 13.4099 31.609 13.4099 31.609C13.4099 31.609 13.41 31.6089 13.41 31.6088L13.4101 31.6067L13.4102 31.6047L13.4102 31.6035L13.4102 31.6029L13.4102 31.6025M13.2925 31.6022C13.1747 31.6022 13.1747 31.6021 13.1747 31.602L13.1747 31.6018L13.1747 31.6015L13.1748 31.6007L13.1748 31.5992L13.1749 31.5958C13.175 31.5935 13.1752 31.5909 13.1754 31.588C13.1759 31.5823 13.1768 31.5755 13.1781 31.5673C13.1808 31.551 13.1855 31.5291 13.1938 31.5001C13.2104 31.4423 13.2418 31.3541 13.3017 31.2231L13.3029 31.2204L13.3029 31.2204C13.3915 31.0386 13.5478 30.8985 13.7382 30.8302C13.7994 30.8082 13.8668 30.84 13.8888 30.9012" fill="#047857"/>
<path fill-rule="evenodd" clip-rule="evenodd" d="M20.5751 31.4697C20.6883 31.3288 20.8741 31.1541 21.1163 31.1541C21.3249 31.1541 21.576 31.2343 21.7645 31.3076C21.8611 31.3451 21.9455 31.3826 22.0058 31.4107C22.036 31.4247 22.0602 31.4365 22.0771 31.4448C22.0855 31.449 22.0921 31.4523 22.0966 31.4546L22.1019 31.4572L22.1033 31.458L22.1037 31.4582C22.1038 31.4582 22.104 31.4583 22.0513 31.5601L22.1037 31.4582C22.1615 31.488 22.1844 31.5592 22.1545 31.6169C22.1247 31.6747 22.0537 31.6973 21.9959 31.6675C21.9959 31.6675 21.9959 31.6675 21.9959 31.6675L21.9947 31.6669L21.9904 31.6647C21.9865 31.6627 21.9806 31.6598 21.9729 31.656C21.9575 31.6484 21.9348 31.6374 21.9064 31.6241C21.8495 31.5976 21.7699 31.5623 21.6792 31.5271C21.4935 31.4548 21.2777 31.3895 21.1163 31.3895C20.9884 31.3895 20.8636 31.4864 20.7587 31.6171C20.709 31.679 20.6693 31.7415 20.6421 31.7889C20.6285 31.8124 20.6182 31.8319 20.6114 31.8452C20.608 31.8519 20.6054 31.857 20.6038 31.8603L20.6021 31.8638L20.6019 31.8644C20.5746 31.9234 20.5046 31.9491 20.4456 31.9218C20.3866 31.8945 20.3609 31.8246 20.3882 31.7656L20.495 31.815C20.3882 31.7656 20.3881 31.7656 20.3882 31.7656L20.3883 31.7652L20.3886 31.7647L20.3893 31.763L20.392 31.7575C20.3943 31.7528 20.3975 31.7463 20.4017 31.7381C20.4101 31.7217 20.4223 31.6987 20.438 31.6713C20.4694 31.6169 20.5157 31.5436 20.5751 31.4697Z" fill="#047857"/>
<path fill-rule="evenodd" clip-rule="evenodd" d="M18.5853 19.4048C18.6503 19.4048 18.703 19.4575 18.703 19.5225V26.7335C18.703 26.7985 18.6503 26.8512 18.5853 26.8512C18.5203 26.8512 18.4676 26.7985 18.4676 26.7335V19.5225C18.4676 19.4575 18.5203 19.4048 18.5853 19.4048Z" fill="#047857"/>
<path fill-rule="evenodd" clip-rule="evenodd" d="M18.8612 24.3293C18.9262 24.3289 18.9793 24.3813 18.9797 24.4463L19.0043 28.0637C19.0048 28.1287 18.9524 28.1817 18.8874 28.1822C18.8224 28.1826 18.7693 28.1303 18.7689 28.0653L18.7443 24.4479C18.7438 24.3829 18.7962 24.3298 18.8612 24.3293Z" fill="#047857"/>
<path fill-rule="evenodd" clip-rule="evenodd" d="M18.5894 27.065C18.6544 27.0673 18.7053 27.1218 18.703 27.1868L18.7027 27.1946L18.702 27.2175C18.7014 27.2376 18.7005 27.2668 18.6996 27.3035C18.6976 27.3769 18.6953 27.4801 18.6938 27.5988C18.6907 27.8368 18.6908 28.1354 18.7029 28.383C18.7135 28.5994 18.8167 28.7767 18.9236 28.9037C18.9766 28.9667 19.029 29.0155 19.0679 29.0483C19.0873 29.0647 19.1032 29.077 19.1139 29.0849C19.1192 29.0889 19.1232 29.0917 19.1257 29.0935L19.1283 29.0953C19.1283 29.0953 19.1284 29.0953 19.1283 29.0953M19.1283 29.0953C19.1824 29.1314 19.1972 29.2046 19.1611 29.2587C19.1251 29.3128 19.052 29.3274 18.9979 29.2913L19.0631 29.1935C18.9979 29.2913 18.9979 29.2913 18.9979 29.2913L18.9975 29.2911L18.997 29.2907L18.9954 29.2896L18.9904 29.2862C18.9863 29.2833 18.9805 29.2792 18.9734 29.2739C18.9593 29.2633 18.9395 29.2481 18.9161 29.2283C18.8692 29.1888 18.8068 29.1306 18.7434 29.0553C18.6175 28.9056 18.4818 28.6806 18.4677 28.3945C18.4553 28.1396 18.4553 27.8352 18.4584 27.5958C18.4599 27.4758 18.4623 27.3716 18.4642 27.2974C18.4652 27.2603 18.466 27.2306 18.4667 27.2102L18.4674 27.1868L18.4677 27.1787C18.4699 27.1137 18.5245 27.0627 18.5894 27.065" fill="#047857"/>
<path fill-rule="evenodd" clip-rule="evenodd" d="M18.1329 18.9023C18.1979 18.9023 18.2506 18.9551 18.2506 19.0201V21.5324C18.2506 21.5974 18.1979 21.6501 18.1329 21.6501C18.0679 21.6501 18.0152 21.5974 18.0152 21.5324V19.0201C18.0152 18.9551 18.0679 18.9023 18.1329 18.9023Z" fill="#047857"/>
<path fill-rule="evenodd" clip-rule="evenodd" d="M17.4888 14.9249C17.5296 14.8743 17.6037 14.8664 17.6543 14.9072C17.7049 14.948 17.7128 15.0221 17.672 15.0727L17.5806 14.999C17.672 15.0727 17.672 15.0727 17.672 15.0727L17.6717 15.0731L17.6713 15.0737L17.6697 15.0755L17.6644 15.0819C17.6599 15.0873 17.6533 15.095 17.6448 15.1047C17.6278 15.124 17.6031 15.1512 17.5714 15.1838C17.508 15.2489 17.416 15.3361 17.3008 15.425C17.0725 15.6014 16.7427 15.7925 16.358 15.8199C15.9794 15.8468 15.6446 15.7386 15.4075 15.6265C15.2884 15.5702 15.1924 15.5123 15.1258 15.4682C15.0925 15.4461 15.0664 15.4273 15.0483 15.4139C15.0393 15.4072 15.0323 15.4018 15.0274 15.3979L15.0215 15.3933L15.0198 15.392L15.0193 15.3915L15.019 15.3913C15.019 15.3913 15.019 15.3912 15.0935 15.3001L15.019 15.3913C14.9687 15.3501 14.9613 15.2759 15.0024 15.2256C15.0436 15.1753 15.1177 15.1679 15.168 15.209L15.1687 15.2095L15.1725 15.2125C15.176 15.2152 15.1815 15.2195 15.189 15.2251C15.2039 15.2362 15.2264 15.2524 15.2559 15.2719C15.3149 15.311 15.401 15.3631 15.5081 15.4136C15.7231 15.5152 16.0164 15.6081 16.3413 15.585C16.6603 15.5623 16.9459 15.4016 17.1569 15.2387C17.2615 15.158 17.3452 15.0786 17.4027 15.0196C17.4313 14.9902 17.4533 14.9659 17.4679 14.9493C17.4752 14.941 17.4806 14.9346 17.4842 14.9305L17.4879 14.9259L17.4888 14.9249ZM15.168 15.209C15.168 15.209 15.168 15.209 15.168 15.209V15.209Z" fill="#047857"/>
<path fill-rule="evenodd" clip-rule="evenodd" d="M13.6221 16.2382C13.674 16.199 13.7478 16.2092 13.787 16.2611C14.1025 16.6783 14.2611 17.1931 14.2353 17.7153L14.281 19.5196C14.2827 19.5846 14.2313 19.6386 14.1663 19.6402C14.1013 19.6419 14.0473 19.5905 14.0456 19.5255L13.9998 17.7168C13.9997 17.7138 13.9998 17.7108 13.9999 17.7078C14.0241 17.2393 13.8822 16.7773 13.5992 16.4031C13.56 16.3512 13.5702 16.2774 13.6221 16.2382Z" fill="#047857"/>
<path fill-rule="evenodd" clip-rule="evenodd" d="M13.9261 30.0963C13.9261 30.0964 13.9261 30.0965 13.8138 30.1246L13.9261 30.0965C13.9419 30.1595 13.9036 30.2235 13.8406 30.2393C13.7785 30.2549 13.7156 30.218 13.6985 30.1567C13.6984 30.1565 13.6983 30.156 13.6981 30.1554C13.6971 30.1529 13.695 30.1482 13.6915 30.1424C13.6846 30.1309 13.6727 30.1163 13.6525 30.1047C13.6168 30.084 13.5157 30.052 13.2822 30.157C13.0467 30.2628 12.7056 30.511 12.3915 30.7687C12.0789 31.0251 11.8083 31.278 11.7145 31.3839C11.6713 31.4325 11.5969 31.4369 11.5483 31.3938C11.4996 31.3506 11.4952 31.2762 11.5383 31.2276C11.6448 31.1076 11.9268 30.8454 12.2422 30.5866C12.5562 30.3291 12.9187 30.0622 13.1857 29.9422C13.4546 29.8213 13.6425 29.8271 13.7702 29.9007C13.8317 29.9362 13.8701 29.9827 13.893 30.0207C13.9045 30.0396 13.9122 30.0567 13.9174 30.0698C13.9199 30.0763 13.9219 30.082 13.9233 30.0865C13.924 30.0888 13.9246 30.0907 13.925 30.0924L13.9257 30.0947L13.9259 30.0956L13.926 30.0961L13.9261 30.0963Z" fill="#047857"/>
<path d="M12.4726 10.5285C12.4726 10.5285 13.7737 11.6624 15.2735 10.3953L12.4726 10.5285Z" fill="#047857"/>
<path fill-rule="evenodd" clip-rule="evenodd" d="M15.3634 10.3191C15.4054 10.3688 15.3991 10.443 15.3494 10.485C14.5684 11.1449 13.8288 11.1845 13.2827 11.0513C13.0123 10.9853 12.7919 10.8778 12.6391 10.7869C12.5626 10.7414 12.5026 10.6998 12.4613 10.6692C12.4407 10.6539 12.4247 10.6413 12.4136 10.6323C12.408 10.6278 12.4037 10.6243 12.4006 10.6217L12.397 10.6186L12.3959 10.6176L12.3955 10.6173L12.3954 10.6172C12.3953 10.6171 12.3952 10.6171 12.4715 10.5295L12.3952 10.6171C12.3462 10.5744 12.3411 10.5 12.3838 10.451C12.4265 10.402 12.5008 10.3969 12.5498 10.4394L12.5501 10.4397L12.5521 10.4414C12.554 10.443 12.5572 10.4457 12.5616 10.4492C12.5702 10.4562 12.5837 10.4668 12.6015 10.48C12.6372 10.5065 12.6906 10.5435 12.7595 10.5845C12.8976 10.6667 13.0962 10.7634 13.3385 10.8225C13.8179 10.9395 14.4788 10.9124 15.1975 10.3051C15.2472 10.2632 15.3214 10.2694 15.3634 10.3191Z" fill="#047857"/>
<path d="M10.5706 12.7302C10.5706 12.7302 11.1384 13.4312 11.8717 12.5969L10.5706 12.7302Z" fill="#047857"/>
<path fill-rule="evenodd" clip-rule="evenodd" d="M11.9494 12.5083C11.9982 12.5512 12.003 12.6256 11.9601 12.6745C11.7666 12.8947 11.5768 13.0216 11.3959 13.0813C11.2139 13.1414 11.0492 13.1306 10.9119 13.0889C10.7762 13.0476 10.6689 12.9768 10.5964 12.9178C10.5599 12.888 10.5314 12.8607 10.5117 12.8403C10.5019 12.8301 10.4942 12.8216 10.4887 12.8154C10.486 12.8123 10.4838 12.8098 10.4822 12.8078L10.4802 12.8055L10.4795 12.8046L10.4793 12.8043L10.4792 12.8042C10.4791 12.8041 10.4791 12.8041 10.5705 12.73L10.4791 12.8041C10.4381 12.7536 10.4459 12.6794 10.4965 12.6385C10.5469 12.5977 10.6208 12.6053 10.6617 12.6555L10.6622 12.6561L10.6655 12.6599C10.6687 12.6635 10.6739 12.6693 10.681 12.6767C10.6953 12.6914 10.7169 12.7123 10.7451 12.7352C10.802 12.7816 10.8825 12.8339 10.9803 12.8636C11.0766 12.8928 11.1914 12.9009 11.3221 12.8577C11.4539 12.8142 11.6102 12.716 11.7833 12.519C11.8262 12.4702 11.9006 12.4654 11.9494 12.5083Z" fill="#047857"/>
<path d="M9.9705 13.6978C9.9705 13.6978 10.3041 14.5652 9.23633 14.4616L9.9705 13.6978Z" fill="#047857"/>
<path fill-rule="evenodd" clip-rule="evenodd" d="M9.92824 13.5877C9.98893 13.5644 10.057 13.5947 10.0804 13.6553L9.97049 13.6976C10.0804 13.6553 10.0804 13.6554 10.0804 13.6555L10.0805 13.6556L10.0806 13.6559L10.081 13.6569L10.082 13.6597C10.0828 13.662 10.0839 13.6651 10.0853 13.6689C10.0879 13.6767 10.0915 13.6875 10.0955 13.7009C10.1035 13.7277 10.1135 13.7655 10.1217 13.8103C10.1378 13.8984 10.1487 14.022 10.1181 14.1464C10.0867 14.2747 10.0109 14.4032 9.85913 14.4884C9.71147 14.5714 9.50504 14.6058 9.22496 14.5786C9.16025 14.5724 9.11287 14.5148 9.11915 14.4501C9.12543 14.3854 9.18297 14.338 9.24769 14.3443C9.50147 14.3689 9.65375 14.3337 9.74384 14.2831C9.82984 14.2349 9.87089 14.166 9.88948 14.0903C9.90899 14.0108 9.90319 13.9241 9.89013 13.8527C9.88375 13.8179 9.87601 13.7886 9.86996 13.7684C9.86694 13.7583 9.86439 13.7506 9.86269 13.7457L9.86084 13.7405L9.86061 13.7398C9.8606 13.7398 9.86059 13.7398 9.86057 13.7397M9.92824 13.5877C9.86759 13.611 9.83731 13.6791 9.86057 13.7397L9.92824 13.5877Z" fill="#047857"/>
<path d="M9.30334 15.3323C9.30334 15.3323 9.97046 15.502 9.70311 16.1335L9.30334 15.3323Z" fill="#047857"/>
<path fill-rule="evenodd" clip-rule="evenodd" d="M9.18927 15.3033C9.2053 15.2403 9.26938 15.2022 9.33239 15.2183L9.30336 15.3324C9.33239 15.2183 9.33245 15.2183 9.33251 15.2183L9.33264 15.2183L9.33296 15.2184L9.33377 15.2186L9.33611 15.2192L9.34356 15.2213C9.34971 15.2231 9.35818 15.2257 9.36855 15.2291C9.38926 15.236 9.41785 15.2464 9.45099 15.2611C9.51654 15.29 9.60368 15.3371 9.68274 15.4091C9.76242 15.4816 9.83629 15.5817 9.86797 15.7147C9.8998 15.8483 9.8862 16.0031 9.81153 16.1795C9.78618 16.2393 9.7171 16.2673 9.65723 16.242C9.59735 16.2166 9.56937 16.1475 9.59471 16.0877C9.65372 15.9483 9.657 15.8451 9.63893 15.7693C9.62073 15.6929 9.57794 15.6321 9.52426 15.5832C9.46997 15.5338 9.40704 15.499 9.35585 15.4764C9.33063 15.4653 9.30919 15.4575 9.29446 15.4526C9.28711 15.4502 9.28151 15.4485 9.27801 15.4475L9.27442 15.4465L9.27392 15.4463C9.27391 15.4463 9.27394 15.4463 9.27401 15.4464L9.27414 15.4464L9.27423 15.4464C9.21128 15.4303 9.17325 15.3663 9.18927 15.3033Z" fill="#047857"/>
<path d="M16.1426 11.1623C16.1426 11.1623 16.1426 11.4959 16.8097 11.4959C17.4768 11.4959 17.3105 10.7617 17.3105 10.7617" fill="#047857"/>
<path fill-rule="evenodd" clip-rule="evenodd" d="M17.2845 10.647C17.3479 10.6326 17.411 10.6724 17.4253 10.7358L17.3105 10.7618C17.4253 10.7358 17.4253 10.7358 17.4253 10.7359L17.4254 10.736L17.4254 10.7363L17.4256 10.7371L17.4261 10.7395L17.4277 10.7474C17.429 10.7539 17.4307 10.7631 17.4326 10.7745C17.4363 10.7974 17.4406 10.8294 17.4435 10.8677C17.4492 10.9433 17.4495 11.0478 17.4251 11.155C17.4006 11.2625 17.3496 11.3796 17.2472 11.4696C17.1434 11.561 16.9991 11.6137 16.8097 11.6137C16.458 11.6137 16.256 11.5257 16.1428 11.4124C16.0867 11.3564 16.0569 11.2983 16.0414 11.2518C16.0337 11.2287 16.0296 11.2087 16.0274 11.1934C16.0263 11.1857 16.0257 11.1792 16.0253 11.174C16.0252 11.1714 16.025 11.1691 16.025 11.1672L16.0249 11.1645L16.0249 11.1634L16.0249 11.1629L16.0249 11.1626C16.0249 11.1625 16.0249 11.1624 16.1401 11.1624H16.0249C16.0249 11.0974 16.0776 11.0447 16.1426 11.0447C16.2064 11.0447 16.2583 11.0954 16.2603 11.1587C16.2603 11.159 16.2604 11.1595 16.2605 11.1601C16.2609 11.163 16.262 11.1691 16.2647 11.1773C16.2701 11.1933 16.2819 11.2186 16.3093 11.2459C16.3628 11.2995 16.4943 11.3782 16.8097 11.3782C16.9539 11.3782 17.0391 11.3392 17.0917 11.2929C17.1457 11.2453 17.1782 11.1788 17.1955 11.1027C17.2129 11.0264 17.2133 10.9474 17.2087 10.8853C17.2064 10.8548 17.2029 10.8295 17.2001 10.8121C17.1987 10.8035 17.1975 10.7969 17.1967 10.7927L17.1958 10.7883L17.1957 10.7878C17.1957 10.7878 17.1957 10.7878 17.1957 10.7877M17.2845 10.647C17.2211 10.6613 17.1814 10.7243 17.1957 10.7877L17.2845 10.647Z" fill="#047857"/>
<path d="M19.4451 9.52856C19.4451 9.52856 19.3449 10.2627 20.1793 10.4961C21.0136 10.7295 21.5135 9.92833 21.5135 9.92833" fill="#047857"/>
<path fill-rule="evenodd" clip-rule="evenodd" d="M19.5617 9.54442C19.5617 9.54442 19.5617 9.54442 19.5617 9.54442L19.5617 9.54442L19.5618 9.54431L19.5618 9.54414L19.5618 9.544C19.5618 9.54399 19.5618 9.54415 19.5617 9.54448L19.5613 9.54835C19.561 9.5522 19.5604 9.55851 19.56 9.56698C19.5591 9.58395 19.5585 9.60942 19.5601 9.64107C19.5633 9.7047 19.5752 9.79135 19.6096 9.88379C19.6765 10.0632 19.8321 10.2768 20.211 10.3828C20.5823 10.4867 20.8787 10.3624 21.0888 10.2055C21.1943 10.1267 21.2764 10.0408 21.3321 9.97431C21.3599 9.9412 21.3808 9.91328 21.3945 9.89401C21.4014 9.88438 21.4065 9.87694 21.4097 9.87214L21.4131 9.86696L21.4136 9.86607L21.4137 9.866C21.4481 9.8109 21.5207 9.79411 21.5758 9.82851C21.631 9.86293 21.6478 9.93555 21.6134 9.99071L21.5135 9.92839C21.6134 9.99071 21.6133 9.99076 21.6133 9.9908L21.6132 9.99092L21.6131 9.9912L21.6126 9.99198L21.611 9.99441L21.6057 10.0025C21.6012 10.0093 21.5947 10.0189 21.5862 10.0307C21.5694 10.0544 21.5447 10.0872 21.5126 10.1256C21.4485 10.202 21.3534 10.3018 21.2297 10.3942C20.9813 10.5795 20.6105 10.7391 20.1475 10.6096C19.6921 10.4822 19.4806 10.212 19.389 9.96599C19.3442 9.84571 19.329 9.73423 19.3249 9.65291C19.3228 9.61209 19.3236 9.57837 19.3249 9.55428C19.3255 9.54222 19.3263 9.53253 19.327 9.52551C19.3273 9.52199 19.3277 9.51915 19.3279 9.51701L19.3282 9.51432L19.3284 9.51338L19.3284 9.51301L19.3284 9.51286C19.3284 9.51279 19.3284 9.51272 19.4448 9.52859L19.3284 9.51272C19.3372 9.44829 19.3966 9.4032 19.461 9.41198C19.5254 9.42077 19.5705 9.48004 19.5617 9.54442C19.5617 9.54442 19.5617 9.54442 19.5617 9.54442Z" fill="#047857"/>
<path d="M21.4167 13.4973C21.4167 13.4973 20.983 13.8648 21.3166 14.2985C21.6501 14.7322 22.0499 14.565 22.0499 14.565" fill="#047857"/>
<path fill-rule="evenodd" clip-rule="evenodd" d="M21.4932 13.5869C21.4931 13.5869 21.4931 13.587 21.493 13.5871L21.4909 13.5889C21.4888 13.5908 21.4853 13.594 21.4808 13.5984C21.4718 13.6072 21.4586 13.6207 21.4435 13.6383C21.4129 13.6739 21.3761 13.7241 21.3487 13.7842C21.2962 13.899 21.2749 14.0513 21.4099 14.2268C21.5557 14.4164 21.7084 14.4675 21.8186 14.4772C21.8757 14.4822 21.9244 14.4763 21.9582 14.4692C21.9751 14.4657 21.988 14.462 21.996 14.4594C22.0001 14.4581 22.0029 14.4571 22.0043 14.4565L22.0054 14.4561C22.0652 14.4317 22.1336 14.46 22.1585 14.5197C22.1836 14.5797 22.1553 14.6486 22.0953 14.6737L22.0499 14.5651C22.0953 14.6737 22.0953 14.6737 22.0952 14.6738L22.0951 14.6738L22.0948 14.674L22.094 14.6743L22.0921 14.675L22.0864 14.6772C22.0818 14.6789 22.0757 14.6811 22.0681 14.6835C22.053 14.6884 22.0321 14.6943 22.0063 14.6997C21.9548 14.7104 21.8826 14.7192 21.7981 14.7118C21.6251 14.6966 21.411 14.6145 21.2233 14.3704C21.0247 14.1122 21.0535 13.8638 21.1345 13.6864C21.1738 13.6005 21.2246 13.5317 21.2649 13.4848C21.2852 13.4612 21.3033 13.4426 21.3167 13.4296C21.3234 13.4231 21.3289 13.418 21.333 13.4143L21.338 13.4098L21.3396 13.4084L21.3402 13.4079L21.3405 13.4077L21.3406 13.4076C21.3406 13.4076 21.3406 13.4075 21.4168 13.4974L21.3406 13.4075C21.3902 13.3655 21.4645 13.3717 21.5066 13.4213" fill="#047857"/>
<path d="M22.3504 15.8C22.3504 15.8 21.8191 15.3128 21.3828 15.9698C20.9465 16.6267 21.7503 17.1046 21.7503 17.1046" fill="#047857"/>
<path fill-rule="evenodd" clip-rule="evenodd" d="M22.4298 15.7132C22.4299 15.7133 22.4299 15.7133 22.3531 15.7971L22.4299 15.7133C22.4778 15.7572 22.4811 15.8317 22.4371 15.8796C22.3933 15.9274 22.3191 15.9308 22.2711 15.8871C22.271 15.887 22.2709 15.8869 22.2708 15.8868L22.3503 15.8002C22.2708 15.8868 22.2708 15.8869 22.2709 15.8869L22.271 15.887L22.2711 15.8871L22.2708 15.8868L22.2679 15.8844C22.2651 15.8819 22.2604 15.8781 22.2541 15.8731C22.2415 15.8632 22.2224 15.8492 22.1981 15.834C22.1489 15.8033 22.0818 15.7699 22.0058 15.7538C21.931 15.7379 21.8487 15.7389 21.7636 15.7747C21.6782 15.8106 21.58 15.8856 21.4809 16.0349C21.3857 16.1782 21.3623 16.3043 21.3733 16.4123C21.3846 16.5228 21.433 16.6247 21.4982 16.7144C21.5633 16.804 21.6418 16.8769 21.7053 16.9279C21.7367 16.9532 21.7638 16.9725 21.7828 16.9854C21.7922 16.9918 21.7996 16.9966 21.8044 16.9996L21.8095 17.0028L21.8105 17.0034L21.8105 17.0035C21.8664 17.0367 21.8847 17.1089 21.8515 17.1648C21.8183 17.2206 21.746 17.239 21.6901 17.2058L21.7503 17.1046C21.6901 17.2058 21.6901 17.2058 21.69 17.2057L21.6899 17.2057L21.6897 17.2055L21.6889 17.205L21.6865 17.2036L21.6784 17.1985C21.6716 17.1942 21.6621 17.1881 21.6505 17.1802C21.6271 17.1643 21.5949 17.1412 21.5578 17.1114C21.4842 17.0523 21.389 16.9647 21.3077 16.8527C21.2264 16.7409 21.1558 16.6002 21.139 16.4362C21.1221 16.2699 21.1617 16.0899 21.2847 15.9047C21.4037 15.7255 21.5355 15.6152 21.6724 15.5576C21.8096 15.5 21.942 15.4996 22.0546 15.5234C22.1659 15.547 22.2589 15.5944 22.3229 15.6344C22.3553 15.6546 22.3811 15.6735 22.3992 15.6877C22.4083 15.6948 22.4155 15.7008 22.4207 15.7052L22.4269 15.7105L22.4288 15.7123L22.4295 15.7129L22.4297 15.7131L22.4298 15.7132Z" fill="#047857"/>
<path opacity="0.1" d="M12.4726 10.5285C12.4726 10.5285 13.7737 11.6624 15.2735 10.3953L12.4726 10.5285Z" fill="#047857"/>
<path opacity="0.1" d="M10.5706 12.7302C10.5706 12.7302 11.1384 13.4312 11.8717 12.5969L10.5706 12.7302Z" fill="#047857"/>
<path opacity="0.1" d="M9.9705 13.6978C9.9705 13.6978 10.3041 14.5652 9.23633 14.4616L9.9705 13.6978Z" fill="#047857"/>
<path opacity="0.1" d="M9.30334 15.3323C9.30334 15.3323 9.97046 15.502 9.70311 16.1335L9.30334 15.3323Z" fill="#047857"/>
<path opacity="0.1" d="M16.1426 11.1623C16.1426 11.1623 16.1426 11.4959 16.8097 11.4959C17.4768 11.4959 17.3105 10.7617 17.3105 10.7617" fill="#047857"/>
<path opacity="0.1" d="M19.4451 9.52856C19.4451 9.52856 19.3449 10.2627 20.1793 10.4961C21.0136 10.7295 21.5135 9.92833 21.5135 9.92833" fill="#047857"/>
<path opacity="0.1" d="M21.4167 13.4973C21.4167 13.4973 20.983 13.8648 21.3166 14.2985C21.6501 14.7322 22.0499 14.565 22.0499 14.565" fill="#047857"/>
<path opacity="0.1" d="M22.3504 15.8C22.3504 15.8 21.8191 15.3128 21.3828 15.9698C20.9465 16.6267 21.7503 17.1046 21.7503 17.1046" fill="#047857"/>
<path d="M22.6514 12.4904C22.6514 15.9953 19.8101 18.8366 16.3053 18.8366M22.6514 12.4904C22.6514 8.98556 19.8101 6.14429 16.3053 6.14429M22.6514 12.4904H9.95911M16.3053 18.8366C12.8004 18.8366 9.95911 15.9953 9.95911 12.4904M16.3053 18.8366C17.4736 18.8366 18.4206 15.9953 18.4206 12.4904C18.4206 8.98556 17.4736 6.14429 16.3053 6.14429M16.3053 18.8366C15.137 18.8366 14.1899 15.9953 14.1899 12.4904C14.1899 8.98556 15.137 6.14429 16.3053 6.14429M9.95911 12.4904C9.95911 8.98556 12.8004 6.14429 16.3053 6.14429" stroke="#FAFAFA" stroke-linecap="round" stroke-linejoin="round"/>
</svg>
